<svg width="73" height="73" viewBox="0 0 73 73" fill="none" xmlns="http://www.w3.org/2000/svg">
<circle cx="36.5" cy="36.5" r="36.5" fill="#7879F1"/>
<mask id="mask0_7_4808" style="mask-type:alpha" maskUnits="userSpaceOnUse" x="0" y="0" width="73" height="73">
<circle cx="36.5" cy="36.5" r="36.5" fill="#7879F1"/>
</mask>
<g mask="url(#mask0_7_4808)">
<path d="M41.3007 39.7351C41.0388 38.9567 41.0329 32.4535 41.0329 32.4535L26.748 31.9841C26.748 31.9841 27.9412 46.1908 27.7686 46.8622" fill="url(#paint0_linear_7_4808)"/>
<g style="mix-blend-mode:multiply" opacity="0.6">
<path d="M26.6407 34.6994C26.6407 34.6994 28.3158 35.1688 28.7205 35.8907C29.1251 36.6127 31.7286 42.0434 33.7816 42.1296C35.8346 42.2157 37.1646 39.328 38.206 38.6626C39.2474 37.9971 41.1338 37.9495 41.1338 37.9495L41.0326 32.4504L26.7478 31.981L26.6377 34.6994H26.6407Z" fill="#8D307F"/>
</g>
<path style="mix-blend-mode:multiply" opacity="0.6" d="M36.4632 35.7215L35.9336 41.1344C35.9336 41.1344 37.2071 39.7084 37.8587 38.6686C38.5103 37.6288 39.7242 33.5557 39.7242 33.5557L36.4602 35.7215H36.4632Z" fill="url(#paint1_linear_7_4808)"/>
<path d="M43.9188 21.286C43.9188 21.286 45.1566 19.4054 45.9956 19.4084C46.5074 19.4084 47.7392 20.4809 47.7243 21.5029C47.7065 22.8695 46.4925 24.4232 46.192 25.2224C45.8885 26.0186 45.106 27.0584 44.5853 27.1594C44.0646 27.2604 43.3862 26.2771 43.3862 26.2771C43.3862 26.2771 43.6391 22.5278 43.9188 21.286V21.286Z" fill="url(#paint2_linear_7_4808)"/>
<path style="mix-blend-mode:multiply" opacity="0.6" d="M44.0112 23.2883C44.0112 23.2883 46.0434 20.7838 46.7813 20.7838C47.5192 20.7838 47.5192 22.2099 47.2217 23.0209C47.0164 23.5824 46.6117 24.3964 46.6117 24.3964C46.6117 24.3964 46.9301 23.523 46.9688 22.8694C47.0283 21.8623 46.8051 21.1314 46.5492 21.1344C46.0821 21.1374 45.7132 21.7761 45.6566 22.0019C45.5971 22.2277 46.0256 23.22 45.9125 23.9122C45.7994 24.6044 45.3829 24.8688 45.246 24.7916C45.1062 24.7173 45.3204 23.9359 45.1954 23.6597C45.0705 23.3834 44.7045 22.9823 44.4903 23.0685C44.276 23.1576 44.0112 23.2853 44.0112 23.2853V23.2883Z" fill="url(#paint3_linear_7_4808)"/>
<path style="mix-blend-mode:multiply" opacity="0.6" d="M44.0112 23.2883C44.0112 23.2883 44.5111 22.9883 44.6628 23.0863C44.8146 23.1814 45.2014 23.529 45.2192 23.7458C45.2341 23.9627 45.0972 24.5866 45.2192 24.6935C45.3412 24.8005 45.7846 24.1023 45.8024 23.4814C45.8232 22.8635 45.4751 22.1475 45.4751 22.0643C45.4751 21.9811 45.5555 21.583 45.5555 21.583C45.5555 21.583 44.3742 22.6971 44.0112 23.2854V23.2883Z" fill="url(#paint4_linear_7_4808)"/>
<path d="M24.498 21.286C24.498 21.286 23.2603 19.4054 22.4212 19.4084C21.9094 19.4084 20.6776 20.4809 20.6925 21.5029C20.7104 22.8695 21.9243 24.4232 22.2248 25.2224C22.5283 26.0186 23.3109 27.0584 23.8316 27.1594C24.3522 27.2604 25.0306 26.2771 25.0306 26.2771C25.0306 26.2771 24.7777 22.5278 24.498 21.286V21.286Z" fill="url(#paint5_linear_7_4808)"/>
<path style="mix-blend-mode:multiply" opacity="0.6" d="M24.406 23.2883C24.406 23.2883 22.3738 20.7838 21.6359 20.7838C20.898 20.7838 20.898 22.2099 21.1955 23.0209C21.4008 23.5824 21.8055 24.3964 21.8055 24.3964C21.8055 24.3964 21.4871 23.523 21.4484 22.8694C21.3889 21.8623 21.6121 21.1314 21.8679 21.1344C22.3351 21.1374 22.704 21.7761 22.7606 22.0019C22.8201 22.2277 22.3916 23.22 22.5047 23.9122C22.6177 24.6044 23.0343 24.8688 23.1712 24.7916C23.311 24.7173 23.0968 23.9359 23.2218 23.6597C23.3467 23.3834 23.7127 22.9823 23.9269 23.0685C24.1411 23.1576 24.406 23.2853 24.406 23.2853V23.2883Z" fill="url(#paint6_linear_7_4808)"/>
<path style="mix-blend-mode:multiply" opacity="0.6" d="M24.4059 23.2883C24.4059 23.2883 23.906 22.9882 23.7542 23.0863C23.6025 23.1813 23.2157 23.5289 23.1978 23.7458C23.18 23.9627 23.3198 24.5866 23.1978 24.6935C23.0759 24.8005 22.6325 24.1023 22.6147 23.4814C22.5938 22.8635 22.942 22.1475 22.942 22.0643C22.942 21.9811 22.8616 21.583 22.8616 21.583C22.8616 21.583 24.0429 22.6971 24.4059 23.2853V23.2883Z" fill="url(#paint7_linear_7_4808)"/>
<path d="M44.1919 21.3513C44.0372 23.0447 43.7099 24.6252 43.6326 26.3959C43.5552 28.1665 43.4094 29.6074 43.1327 30.2669C43.0077 30.564 42.7876 30.87 42.5108 31.182C41.7224 32.0702 40.4697 33.0001 39.6217 33.8736C39.3004 34.2033 38.9672 34.4826 38.6547 34.7173C38.6547 34.7173 38.6518 34.7173 38.6488 34.7203C38.018 35.1897 37.4557 35.4689 37.1909 35.5759C36.3815 35.9086 34.2839 35.9086 34.2839 35.9086C34.2839 35.9086 32.1863 35.9086 31.3769 35.5759C30.9782 35.4125 29.9131 34.8658 28.9461 33.8736C27.9433 32.8427 26.3783 31.7316 25.6821 30.7096C25.5779 30.561 25.4946 30.4125 25.4321 30.2669C25.1554 29.6074 25.0066 28.1665 24.9323 26.3959C24.8549 24.6252 24.5276 23.0447 24.3729 21.3513C24.2182 19.6549 24.0277 13.7845 24.5276 12.4357C25.0304 11.0869 30.9693 7.46838 34.2869 7.46838C36.6136 7.46838 40.2376 9.25091 42.3591 10.7809C43.2606 11.4315 43.8944 12.0346 44.0432 12.4357C44.546 13.7845 44.3526 19.6579 44.1979 21.3513H44.1919Z" fill="url(#paint8_linear_7_4808)"/>
<path d="M32.4357 5.46008C32.4357 5.46008 33.7538 4.68765 35.6491 4.76489C37.5474 4.84213 39.6986 5.86412 39.6986 5.86412L34.4887 8.66863L32.1382 7.81004L32.4327 5.46008H32.4357Z" fill="url(#paint9_linear_7_4808)"/>
<path d="M45.5552 13.8171L45.0316 13.4428L44.1449 20.5581C44.1449 20.5581 44.3561 18.1517 44.0289 16.8207C43.7016 15.4898 43.7789 12.8278 43.7789 12.8278C43.7789 12.8278 41.7765 10.3977 39.9109 9.83913C39.9109 9.83913 37.4681 10.1273 33.7995 10.264C30.1308 10.3977 28.0242 10.3412 28.0242 10.3412C28.0242 10.3412 25.5755 11.69 24.8019 13.0417C24.8019 13.0417 24.8227 15.0857 24.7632 16.1641C24.7037 17.2426 24.1711 20.9383 24.1711 20.9383C24.1711 20.9383 24.1711 20.9235 24.1681 20.8997C24.1384 20.4363 23.8349 16.0631 23.5136 14.2568C23.5017 14.1915 23.4898 14.1291 23.4808 14.0637C23.4451 13.832 23.4154 13.6003 23.3945 13.3685C23.3945 13.3626 23.3945 13.3567 23.3916 13.3477C23.3142 12.5159 23.3231 11.693 23.3469 11.0869C23.3469 11.0453 23.3499 11.0037 23.3529 10.9621C23.3559 10.9235 23.3588 10.8849 23.3588 10.8463C23.3588 10.8136 23.3618 10.7779 23.3648 10.7482C23.3648 10.7155 23.3678 10.6829 23.3707 10.6532C23.3767 10.5819 23.3797 10.5135 23.3856 10.4541C23.3886 10.4214 23.3916 10.3887 23.3945 10.362C23.3945 10.3561 23.3945 10.3501 23.3945 10.3472C23.3945 10.3174 23.4005 10.2937 23.4005 10.2669C23.4064 10.2135 23.4094 10.1719 23.4124 10.1451C23.4124 10.1362 23.4124 10.1303 23.4124 10.1273C23.4124 10.1095 23.4154 10.1035 23.4154 10.1035L23.4808 10.1243L23.9331 10.9978C23.9331 10.9978 23.9331 10.9978 23.939 10.9889C23.939 10.9889 23.945 10.9829 23.948 10.98C23.948 10.98 23.9509 10.977 23.9539 10.974C23.9628 10.9651 23.9718 10.9562 23.9837 10.9413C24.1146 10.7868 24.5341 10.3056 25.1351 9.67871C25.1679 9.64306 25.2006 9.60741 25.2333 9.57473C25.2423 9.56284 25.2512 9.55393 25.2601 9.54502C25.3137 9.48857 25.3791 9.42024 25.4535 9.34894C25.4714 9.33111 25.4922 9.31032 25.513 9.28952C26.0932 8.69832 26.8014 8.02393 27.5631 7.38519C27.569 7.37925 27.572 7.37627 27.5779 7.3733C27.6047 7.35251 27.6285 7.32874 27.6583 7.30794C27.932 7.07919 28.2117 6.85637 28.4973 6.64544C30.9014 4.854 33.6537 3.92708 33.6537 3.92708H34.9004C34.9004 3.92708 33.4543 6.3127 33.136 7.80705C33.1776 7.71198 34.582 4.61039 35.7305 3.92708C35.7305 3.92708 36.8433 3.78151 38.087 4.36083C38.087 4.36083 35.9923 6.12256 35.4746 7.51294C35.5609 7.44163 39.0094 4.55988 41.5266 6.06612C41.4581 6.05126 40.744 5.9146 40.0627 5.99482C40.0627 5.99482 40.7887 6.29785 41.9282 7.57235C42.0949 7.75952 42.2853 7.98828 42.4846 8.24674C43.651 9.74407 45.2369 12.2693 45.5552 13.8171Z" fill="url(#paint10_linear_7_4808)"/>
<path d="M34.145 10.2462C34.145 10.2462 37.3317 3.81424 41.5299 6.06913C41.5299 6.06913 37.5459 5.76016 34.7312 10.2224L34.145 10.2492V10.2462Z" fill="url(#paint11_linear_7_4808)"/>
<path d="M35.7279 3.93002C35.7279 3.93002 33.1601 6.62164 32.7822 10.2491H34.142C34.142 10.2491 34.4425 6.71077 37.1739 4.04886C37.1739 4.04886 36.558 3.93002 35.7279 3.93002V3.93002Z" fill="url(#paint12_linear_7_4808)"/>
<path d="M33.6526 3.93002C33.6526 3.93002 31.6055 6.72562 31.4419 10.3293C31.4419 10.3293 31.8287 7.02271 34.1435 3.93002H33.6526V3.93002Z" fill="url(#paint13_linear_7_4808)"/>
<path d="M23.7007 10.9116C23.7007 10.9116 24.3612 11.993 24.9831 12.7595L24.8016 13.0358V13.8171C24.8016 13.8171 23.9209 13.4012 23.415 12.4238V10.1005L23.7007 10.9145V10.9116Z" fill="url(#paint14_linear_7_4808)"/>
<path d="M27.2268 7.64367C27.2268 7.64367 26.227 8.82905 25.9741 11.7405L26.4621 11.3543C26.4621 11.3543 26.3788 8.87361 27.9587 7.05246L27.2268 7.64367V7.64367Z" fill="url(#paint15_linear_7_4808)"/>
<path d="M36.8931 10.0976C36.8931 10.0976 38.8717 7.59905 42.225 7.5426L42.0524 7.72086L43.2485 8.00606C43.2485 8.00606 41.3859 8.40119 39.9072 9.83612L36.8901 10.0976H36.8931Z" fill="url(#paint16_linear_7_4808)"/>
<g style="mix-blend-mode:multiply" opacity="0.6">
<path d="M37.1286 9.83616H39.9106C39.9106 9.83616 37.4678 10.1243 33.7992 10.261C30.1305 10.3947 28.0239 10.3382 28.0239 10.3382C28.0239 10.3382 25.5752 11.687 24.8016 13.0388C24.8016 13.0388 24.8224 15.0827 24.7629 16.1612C24.7034 17.2396 24.1708 20.9354 24.1708 20.9354C24.1708 20.9354 24.1708 20.9205 24.1678 20.8967C24.1232 20.4273 23.7007 16.0097 23.4805 14.0608C23.4478 13.7637 23.418 13.526 23.3942 13.3656C23.3942 13.3596 23.3942 13.3537 23.3913 13.3448C23.2901 12.611 23.3139 11.6454 23.3526 10.9592C23.3556 10.9205 23.3585 10.8819 23.3585 10.8433C23.3585 10.8106 23.3615 10.775 23.3645 10.7453C23.3645 10.7126 23.3675 10.6799 23.3704 10.6502C23.3764 10.5789 23.3794 10.5106 23.3853 10.4511C23.3883 10.4185 23.3913 10.3858 23.3942 10.359C23.3942 10.3531 23.3942 10.3472 23.3942 10.3442C23.3942 10.3145 23.4002 10.2907 23.4002 10.264C23.4061 10.2105 23.4091 10.1689 23.4121 10.1422C23.4121 10.1333 23.4121 10.1273 23.4121 10.1243C23.4121 10.1065 23.4151 10.1006 23.4151 10.1006L23.4805 10.1214L23.9328 10.9948C23.9328 10.9948 23.9328 10.9948 23.9387 10.9859C23.9387 10.9859 23.9447 10.98 23.9477 10.977C23.9477 10.977 23.9506 10.974 23.9536 10.971C24.0726 10.8403 24.7183 10.1184 25.233 9.57175C25.242 9.55987 25.2509 9.55096 25.2598 9.54205C25.3134 9.4856 25.3788 9.41727 25.4532 9.34597C26.0542 8.74882 27.2236 7.69119 27.5598 7.38519C27.5657 7.37924 27.5687 7.37627 27.5747 7.3733C27.6252 7.32874 27.655 7.302 27.655 7.302V7.31091C27.5152 8.8023 27.9644 9.74109 27.9644 9.74109C30.6036 9.96391 37.1316 9.83913 37.1316 9.83913L37.1286 9.83616Z" fill="#8D307F"/>
</g>
<g style="mix-blend-mode:multiply" opacity="0.6">
<path d="M45.5554 13.8171L45.0318 13.4428L44.1451 20.5581C44.1451 20.5581 44.3564 18.1516 44.0291 16.8207C43.7018 15.4897 43.7791 12.8278 43.7791 12.8278C43.7791 12.8278 41.7767 10.3977 39.9111 9.83913L40.0748 9.68761L42.4819 8.24673H42.4848C43.6512 9.74703 45.2371 12.2723 45.5554 13.8201V13.8171Z" fill="#8D307F"/>
</g>
<path d="M42.0757 11.1285C42.0757 11.1285 42.7332 10.876 43.6407 10.9146C44.5482 10.9532 44.9737 11.7346 44.9737 11.7346C44.9737 11.7346 43.8966 11.3721 42.4476 11.4523L42.0757 11.1285V11.1285Z" fill="url(#paint17_linear_7_4808)"/>
<path d="M25.733 11.9514C25.733 11.9514 24.052 10.3293 24.9832 8.41016C24.9832 8.41016 25.26 9.54503 25.9919 11.5563L25.733 11.9485V11.9514Z" fill="url(#paint18_linear_7_4808)"/>
<path d="M8.65674 124.084V124.093L21.2307 124.878L24.0752 120.831L29.5975 125.4L51.9695 126.8H52.026C52.026 126.8 64.5762 52.5159 49.0685 41.5325C47.8307 40.6591 46.4382 40.1837 44.8672 40.1837L41.4396 36.5682L33.7452 42.4327L29.0381 46.2859L27.4047 40.1808C27.4047 40.1808 26.0568 42.1475 25.5956 43.725C25.5956 43.725 25.5629 43.731 25.5004 43.7399C24.819 43.8528 20.5851 44.6549 16.9045 47.8546C16.7766 47.9674 16.6457 48.0803 16.5207 48.1992C15.4138 49.2212 14.3725 50.4719 13.5066 51.996C9.17445 59.643 8.68054 120.986 8.65971 123.977C8.65674 124.028 8.65674 124.061 8.65674 124.081V124.084Z" fill="#3C3148"/>
<path d="M29.0352 46.2919C29.0352 46.2919 23.1588 110.65 24.0723 120.831C24.0723 120.831 21.8586 78.1991 29.0352 46.2919Z" fill="#261D30"/>
<path d="M27.4015 40.1866L29.035 46.2918L25.2295 51.9988C25.2592 47.7327 25.414 44.3369 25.5925 43.7279C26.0537 42.1534 27.3985 40.1837 27.3985 40.1837L27.4015 40.1866Z" fill="#261D30"/>
<path d="M29.0352 46.2918L34.4533 53.0773L44.8642 40.1866L41.4366 36.571L29.0352 46.2918Z" fill="#261D30"/>
<path d="M46.6136 116.99L48.3245 118.362L54.6501 123.255L57.3667 125.356C57.3667 125.356 87.1979 93.7843 84.5677 84.1498C81.9791 74.6637 51.8205 44.1736 50.8803 43.2289C50.8714 43.2199 50.8654 43.214 50.8625 43.211C50.8625 43.2051 50.8565 43.2021 50.8565 43.2021C50.8565 43.2021 50.8357 43.3299 50.797 43.5705C50.3775 46.2621 47.7562 62.8901 46.6106 64.7261C45.9531 65.7838 52.0794 71.88 58.0064 77.397C63.2966 82.3197 68.4262 86.782 68.4262 86.782C64.5671 90.1064 46.6077 116.99 46.6077 116.99H46.6136Z" fill="#3C3148"/>
<path d="M-1.47374 100.668C-1.47374 100.668 6.02424 64.334 8.65448 57.4891C9.71074 54.738 11.252 52.6465 12.7159 51.1255C13.796 50.0025 14.8344 49.1884 15.608 48.6567C16.3964 48.116 16.9052 47.8634 16.9052 47.8634C16.9052 47.8634 16.8963 48.3685 16.8755 49.2687C16.7208 56.8206 15.965 92.2929 15.5127 93.2317C15.2896 93.6952 12.1208 100.671 8.65746 108.309V108.318C8.56224 108.523 8.46703 108.731 8.37479 108.939L-2.13428 102.736L-1.47374 100.671V100.668Z" fill="#3C3148"/>
<path d="M6.28473 105.721C6.15084 103.971 11.9856 63.4279 14.2231 55.6798C12.5836 68.4279 8.65612 108.306 8.65612 108.306V108.315C8.56091 108.52 8.46569 108.728 8.37345 108.936L5.83545 107.438C6.14191 106.616 6.31151 106.015 6.28771 105.724L6.28473 105.721Z" fill="#261D30"/>
<path d="M43.7782 18.7839C43.7782 18.7839 43.0343 17.5034 42.2875 17.4648C42.1268 17.4559 41.9275 17.4737 41.7014 17.5094C40.0917 17.7738 37.146 19.0245 37.146 19.0245C37.146 19.0245 36.6581 17.7589 36.7116 17.242L36.8812 17.1677C36.8812 17.1677 37.0568 17.9669 37.1698 18.0828L37.149 17.0489C37.149 17.0489 39.4936 16.6954 41.0111 16.4755L41.264 16.4369C41.4425 16.4102 41.6061 16.3864 41.749 16.3686C42.0614 16.324 42.2607 16.3002 42.2726 16.3002C42.3351 16.3181 42.472 16.3656 42.4869 16.3686L42.4035 16.1458C42.4035 16.1458 43.192 16.9687 43.7722 18.7839H43.7782Z" fill="url(#paint19_linear_7_4808)"/>
<g style="mix-blend-mode:multiply" opacity="0.6">
<path d="M43.7783 18.7844C43.7783 18.7844 43.0344 17.5039 42.2876 17.4653C42.127 17.4564 41.9276 17.4742 41.7015 17.5099L41.0142 16.473L41.2671 16.4344C41.6806 16.5057 42.8291 17.3316 42.8291 17.3316C42.5138 16.7196 41.7937 16.3839 41.7521 16.3661C42.0645 16.3215 42.2638 16.2978 42.2757 16.2978C42.3382 16.3156 42.4751 16.3631 42.4899 16.3661L42.4066 16.1433C42.4066 16.1433 43.1951 16.9662 43.7753 18.7814L43.7783 18.7844Z" fill="#B23594"/>
</g>
<path d="M25.7422 18.7839C25.7422 18.7839 26.486 17.5035 27.2329 17.4649C27.3935 17.4559 27.5929 17.4738 27.819 17.5094C29.4287 17.7738 32.3743 19.0246 32.3743 19.0246C32.3743 19.0246 32.8623 17.759 32.8087 17.242L32.6391 17.1678C32.6391 17.1678 32.4636 17.9669 32.3505 18.0828L32.3714 17.0489C32.3714 17.0489 30.0267 16.6954 28.5093 16.4756L28.2564 16.4369C28.0779 16.4102 27.9142 16.3864 27.7714 16.3686C27.459 16.324 27.2596 16.3003 27.2477 16.3003C27.1853 16.3181 27.0484 16.3656 27.0335 16.3686L27.1168 16.1458C27.1168 16.1458 26.3283 16.9687 25.7481 18.7839H25.7422Z" fill="url(#paint20_linear_7_4808)"/>
<g style="mix-blend-mode:multiply" opacity="0.6">
<path d="M25.7422 18.7844C25.7422 18.7844 26.486 17.5039 27.2329 17.4653C27.3935 17.4564 27.5929 17.4742 27.819 17.5099L28.5063 16.473L28.2534 16.4344C27.8398 16.5057 26.6913 17.3316 26.6913 17.3316C27.0067 16.7196 27.7268 16.3839 27.7684 16.3661C27.456 16.3215 27.2567 16.2978 27.2448 16.2978C27.1823 16.3156 27.0454 16.3631 27.0305 16.3661L27.1138 16.1433C27.1138 16.1433 26.3254 16.9662 25.7452 18.7814L25.7422 18.7844Z" fill="#B23594"/>
</g>
<path d="M37.5709 21.7049C37.559 21.9158 39.3739 21.9307 40.4867 21.791C41.5995 21.6514 42.1143 20.8344 42.144 20.6146C42.1708 20.3947 41.8703 19.7738 40.332 19.9134C38.7937 20.0531 37.6036 21.2206 37.5738 21.7019L37.5709 21.7049Z" fill="url(#paint21_linear_7_4808)"/>
<path d="M40.91 20.8433C40.8623 21.4732 40.3119 21.9425 39.6811 21.895C39.0503 21.8475 38.5802 21.2979 38.6278 20.668C38.6754 20.0382 39.2259 19.5688 39.8567 19.6164C40.4874 19.6639 40.9576 20.2135 40.91 20.8433Z" fill="url(#paint22_linear_7_4808)"/>
<path d="M40.8422 20.8373C40.7975 21.4285 40.2798 21.8741 39.6847 21.8266C39.0897 21.7791 38.6463 21.2651 38.6939 20.6709C38.7386 20.0797 39.2563 19.6341 39.8514 19.6816C40.4435 19.7262 40.8898 20.2431 40.8422 20.8373Z" fill="url(#paint23_linear_7_4808)"/>
<path style="mix-blend-mode:multiply" d="M40.4634 20.8106C40.4337 21.1939 40.0975 21.482 39.7136 21.4523C39.3298 21.4226 39.0412 21.0869 39.071 20.7037C39.1007 20.3204 39.4369 20.0322 39.8208 20.062C40.2046 20.0917 40.4932 20.4274 40.4634 20.8106Z" fill="url(#paint24_linear_7_4808)"/>
<path d="M37.4976 21.7999C37.4976 21.7999 38.4497 19.7025 40.0028 19.4381C41.2823 19.2182 42.2255 20.365 42.2255 20.365C42.2255 20.365 41.2168 19.8481 39.9374 20.1065C38.658 20.365 37.5005 21.8029 37.5005 21.8029L37.4976 21.7999Z" fill="#E56D5C"/>
<path d="M37.6842 21.4345L38.0085 21.8475C38.0085 21.8475 37.5414 21.8059 37.4998 21.791C37.4581 21.7762 37.6842 21.4345 37.6842 21.4345Z" fill="#DE4E6B"/>
<path d="M38.6221 21.8802C38.6221 21.8802 40.1633 22.0168 41.044 21.7138C41.9962 21.384 42.1449 20.6146 42.1449 20.6146C42.1449 20.6146 41.9069 21.39 40.9042 21.6663C40.0265 21.9099 38.6221 21.8772 38.6221 21.8772V21.8802Z" fill="#DE4E6B"/>
<path d="M40.8021 21.084C40.701 21.1434 41.0997 21.2414 41.421 21.182C41.7096 21.1285 41.8733 20.9829 41.8554 20.9473C41.8346 20.9116 41.2038 20.8463 40.8021 21.081V21.084Z" fill="white"/>
<path d="M40.5585 21.1166C40.4514 21.0542 40.3086 21.0869 40.2908 21.1463C40.2729 21.2058 40.4008 21.3097 40.4693 21.2979C40.5407 21.286 40.618 21.1493 40.5585 21.1166Z" fill="white"/>
<g style="mix-blend-mode:multiply" opacity="0.6">
<path d="M37.5654 21.687C37.5654 21.687 39.5976 19.75 42.1416 20.6175C42.1416 20.6175 41.4364 19.8718 39.8952 19.9877C38.3509 20.1036 37.5654 21.687 37.5654 21.687V21.687Z" fill="#B23594"/>
</g>
<path d="M37.4976 21.7999C37.4976 21.7999 38.4765 20.4095 39.9225 20.2758C41.3685 20.1392 42.1451 20.6175 42.1451 20.6175L42.276 20.3976C42.276 20.3976 41.0055 19.7767 39.741 20.0887C38.2236 20.466 37.4976 21.7999 37.4976 21.7999V21.7999Z" fill="#290B39"/>
<path d="M37.4966 21.7999C37.4966 21.7999 38.172 19.5421 39.1836 18.8469C39.1836 18.8469 38.0232 20.5254 37.4966 21.7999Z" fill="#DE4E6B"/>
<path d="M32.0665 21.7049C32.0784 21.9158 30.2634 21.9307 29.1506 21.791C28.0378 21.6514 27.523 20.8344 27.4933 20.6146C27.4665 20.3947 27.767 19.7738 29.3053 19.9134C30.8436 20.0531 32.0337 21.2206 32.0635 21.7019L32.0665 21.7049Z" fill="url(#paint25_linear_7_4808)"/>
<path d="M28.7323 20.8433C28.7799 21.4732 29.3304 21.9425 29.9612 21.895C30.5919 21.8475 31.0621 21.2979 31.0144 20.668C30.9668 20.0382 30.4164 19.5688 29.7856 19.6164C29.1548 19.6639 28.6847 20.2135 28.7323 20.8433Z" fill="url(#paint26_linear_7_4808)"/>
<path d="M28.7999 20.8373C28.8445 21.4285 29.3622 21.8741 29.9573 21.8266C30.5494 21.782 30.9957 21.2651 30.9481 20.6709C30.9005 20.0767 30.3858 19.6341 29.7907 19.6816C29.1986 19.7262 28.7523 20.2431 28.7999 20.8373Z" fill="url(#paint27_linear_7_4808)"/>
<path style="mix-blend-mode:multiply" d="M29.1745 20.8106C29.2042 21.1939 29.5404 21.482 29.9243 21.4523C30.3081 21.4226 30.5967 21.0869 30.567 20.7037C30.5372 20.3204 30.201 20.0322 29.8172 20.062C29.4333 20.0917 29.1447 20.4274 29.1745 20.8106Z" fill="url(#paint28_linear_7_4808)"/>
<path d="M32.1449 21.7999C32.1449 21.7999 31.1928 19.7024 29.6396 19.438C28.3602 19.2182 27.417 20.3649 27.417 20.3649C27.417 20.3649 28.4256 19.848 29.7051 20.1065C30.9845 20.3649 32.1419 21.8028 32.1419 21.8028L32.1449 21.7999Z" fill="#E56D5C"/>
<path d="M31.9571 21.4345L31.6328 21.8475C31.6328 21.8475 32.0999 21.8059 32.1416 21.791C32.1833 21.7762 31.9571 21.4345 31.9571 21.4345Z" fill="#DE4E6B"/>
<path d="M31.017 21.8802C31.017 21.8802 29.4757 22.0168 28.595 21.7138C27.6429 21.384 27.4941 20.6146 27.4941 20.6146C27.4941 20.6146 27.7322 21.39 28.7349 21.6663C29.6126 21.9099 31.017 21.8772 31.017 21.8772V21.8802Z" fill="#DE4E6B"/>
<path d="M28.8388 21.084C28.94 21.1434 28.5413 21.2414 28.2199 21.182C27.9313 21.1285 27.7677 20.9829 27.7855 20.9473C27.8063 20.9116 28.4371 20.8463 28.8388 21.081V21.084Z" fill="white"/>
<path d="M29.0822 21.1165C29.1893 21.0542 29.3322 21.0868 29.35 21.1463C29.3679 21.2057 29.2399 21.3097 29.1715 21.2978C29.1001 21.2859 29.0227 21.1492 29.0822 21.1165Z" fill="white"/>
<g style="mix-blend-mode:multiply" opacity="0.6">
<path d="M32.0722 21.687C32.0722 21.687 30.0401 19.75 27.4961 20.6175C27.4961 20.6175 28.2013 19.8718 29.7425 19.9877C31.2867 20.1036 32.0722 21.687 32.0722 21.687V21.687Z" fill="#B23594"/>
</g>
<path d="M32.1452 21.7999C32.1452 21.7999 31.1663 20.4095 29.7202 20.2758C28.2742 20.1392 27.4976 20.6175 27.4976 20.6175L27.3667 20.3976C27.3667 20.3976 28.6372 19.7767 29.9017 20.0887C31.4192 20.466 32.1452 21.7999 32.1452 21.7999V21.7999Z" fill="#290B39"/>
<path d="M32.1446 21.7999C32.1446 21.7999 31.4692 19.5421 30.4575 18.8469C30.4575 18.8469 31.6179 20.5254 32.1446 21.7999Z" fill="#DE4E6B"/>
<path d="M32.2147 26.0127C32.2147 26.0127 31.5542 23.6092 34.6724 23.6092C37.7906 23.6092 37.267 25.9651 37.267 25.9651L37.1271 26.0127C37.1271 26.0127 36.2762 26.5445 34.6694 26.5445C33.0627 26.5445 32.2118 26.0127 32.2118 26.0127H32.2147Z" fill="url(#paint29_linear_7_4808)"/>
<g style="mix-blend-mode:multiply" opacity="0.6">
<path d="M34.6408 26.1849C33.0103 26.1849 32.2158 26.0126 32.2158 26.0126C33.0489 25.9888 33.7214 26.5384 34.6735 26.5444C35.6256 26.5384 36.2951 25.9888 37.1312 26.0126C37.1312 26.0126 36.1731 26.1849 34.6437 26.1849H34.6408Z" fill="#B23594"/>
</g>
<path style="mix-blend-mode:multiply" opacity="0.5" d="M35.9409 26.2681C35.9409 26.2681 36.3604 25.8225 37.1281 26.0126L35.9409 26.2681Z" fill="url(#paint30_linear_7_4808)"/>
<path style="mix-blend-mode:multiply" opacity="0.5" d="M32.2158 26.0126C32.2158 26.0126 32.7068 25.7719 33.3613 26.2562L32.2158 26.0126Z" fill="url(#paint31_linear_7_4808)"/>
<g style="mix-blend-mode:multiply" opacity="0.6">
<path d="M32.5282 24.3193C32.5282 24.3193 31.8141 24.9372 32.1563 25.9651C32.1563 25.9651 32.186 25.1333 32.5282 24.3193Z" fill="#B23594"/>
</g>
<g style="mix-blend-mode:multiply" opacity="0.6">
<path d="M36.8691 24.3608C36.8691 24.3608 37.61 24.9371 37.2649 25.9651C37.2649 25.9651 37.2083 25.1748 36.8691 24.3608Z" fill="#B23594"/>
</g>
<g style="mix-blend-mode:multiply" opacity="0.6">
<path d="M32.2158 26.0126C32.2158 26.0126 33.5547 27.1683 34.6735 27.1683C35.7922 27.1683 37.268 25.9651 37.268 25.9651C37.0151 24.447 36.1017 26.1849 34.6437 26.1849C33.6529 26.1849 32.4568 24.851 32.2188 26.0126H32.2158Z" fill="#B23594"/>
</g>
<path d="M35.7289 25.4185C35.7199 25.2818 35.8895 25.1273 36.0234 25.1392C36.1573 25.1511 36.0889 25.4511 36.0234 25.5076C35.958 25.564 35.7289 25.4155 35.7289 25.4155V25.4185Z" fill="#FCCBB9"/>
<path style="mix-blend-mode:multiply" opacity="0.6" d="M32.5273 24.3193C32.5273 24.3193 32.7564 24.6758 32.9975 25.8226C32.9975 25.8226 33.2861 25.0561 32.694 24.1886L32.5273 24.3193Z" fill="url(#paint32_linear_7_4808)"/>
<path style="mix-blend-mode:multiply" opacity="0.6" d="M36.8285 24.3519C36.8285 24.3519 36.6648 24.6757 36.4268 25.8225C36.4268 25.8225 36.0727 25.0263 36.6648 24.1588L36.8285 24.3519V24.3519Z" fill="url(#paint33_linear_7_4808)"/>
<path style="mix-blend-mode:multiply" d="M30.4307 29.2003C30.4307 29.2003 32.207 32.3346 34.623 32.3346C36.8069 32.3346 38.6606 29.2627 38.6606 29.2627C38.6606 29.2627 36.9527 30.9888 35.343 31.1552C33.7333 31.3216 30.4307 29.2003 30.4307 29.2003Z" fill="url(#paint34_linear_7_4808)"/>
<path d="M29.6157 27.9615C29.6157 27.9615 31.3385 30.8729 32.5376 31.274C33.7366 31.6721 35.9354 31.4404 36.6406 31.274C37.3488 31.1076 39.4672 28.217 39.4672 28.217C39.4672 28.217 37.1613 30.3322 34.543 30.3322C31.9246 30.3322 29.6187 27.9644 29.6187 27.9644L29.6157 27.9615Z" fill="#EF7172"/>
<path d="M29.6157 27.9615C29.6157 27.9615 31.0975 28.823 34.3823 28.823C37.6671 28.823 39.7767 27.9615 39.7767 27.9615C39.7767 27.9615 36.962 30.4362 34.3823 30.4362C32.2103 30.4362 29.6157 27.9615 29.6157 27.9615Z" fill="#D35057"/>
<path d="M39.3545 27.7001C39.3545 27.7001 39.8693 28.1249 40.0924 28.4576C40.0924 28.4576 40.1668 27.8664 39.9407 27.5664C39.7146 27.2663 39.3516 27.7001 39.3516 27.7001H39.3545Z" fill="#DE6B7D"/>
<path d="M29.9894 27.7001C29.9894 27.7001 29.4746 28.1249 29.2515 28.4576C29.2515 28.4576 29.1771 27.8664 29.4032 27.5664C29.6293 27.2663 29.9923 27.7001 29.9923 27.7001H29.9894Z" fill="#DE6B7D"/>
<path d="M30.5469 28.5438C30.5469 28.5438 32.4035 30.2609 34.3792 30.3293C36.8279 30.4124 38.7649 28.4576 38.7649 28.4576C38.7649 28.4576 36.2031 29.0785 34.3167 29.0785C32.4303 29.0785 30.5469 28.5467 30.5469 28.5467V28.5438Z" fill="white"/>
<path d="M37.9002 28.6448L37.8496 29.2211L39.016 28.3536L37.9002 28.6448Z" fill="#4F1C3E"/>
<path d="M31.3476 28.7339L31.4488 29.2627L30.2051 28.3863L31.3476 28.7339Z" fill="#4F1C3E"/>
<g style="mix-blend-mode:soft-light">
<path d="M35.4888 30.6679L35.7863 31.3987C35.7863 31.3987 36.423 31.3601 36.8039 31.1997C37.1937 31.0393 38.0952 30.0232 38.4017 29.5776L38.0774 29.4825C38.0774 29.4825 37.0151 30.3025 35.4888 30.6679Z" fill="#FCCBB9"/>
</g>
<g style="mix-blend-mode:multiply" opacity="0.6">
<path d="M31.3606 28.8259C31.3606 28.8259 32.7174 29.2211 34.3777 29.2211C36.0379 29.2211 37.8886 28.719 37.8886 28.719L37.8946 28.6447C37.8946 28.6447 35.8892 29.0785 34.3152 29.0785C32.7412 29.0785 31.3428 28.7368 31.3428 28.7368L31.3606 28.8259V28.8259Z" fill="#8D307F"/>
</g>
</g>
<defs>
<linearGradient id="paint0_linear_7_4808" x1="34.0258" y1="46.8622" x2="34.0258" y2="31.9811" gradientUnits="userSpaceOnUse">
<stop stop-color="#F9B19E"/>
<stop offset="0.21" stop-color="#F69B8F"/>
<stop offset="0.47" stop-color="#F48781"/>
<stop offset="0.74" stop-color="#F37B79"/>
<stop offset="1" stop-color="#F37777"/>
</linearGradient>
<linearGradient id="paint1_linear_7_4808" x1="37.8289" y1="41.1315" x2="37.8289" y2="33.5528" gradientUnits="userSpaceOnUse">
<stop stop-color="#FEEADB"/>
<stop offset="0.99" stop-color="#B17EB7"/>
</linearGradient>
<linearGradient id="paint2_linear_7_4808" x1="45.5553" y1="27.1683" x2="45.5553" y2="19.4114" gradientUnits="userSpaceOnUse">
<stop stop-color="#F4837E"/>
<stop offset="0.01" stop-color="#F3827D"/>
<stop offset="0.34" stop-color="#F27369"/>
<stop offset="0.67" stop-color="#F26A5D"/>
<stop offset="1" stop-color="#F26859"/>
</linearGradient>
<linearGradient id="paint3_linear_7_4808" x1="45.7072" y1="24.8064" x2="45.7072" y2="20.7838" gradientUnits="userSpaceOnUse">
<stop stop-color="#FEEADB"/>
<stop offset="0.99" stop-color="#B17EB7"/>
</linearGradient>
<linearGradient id="paint4_linear_7_4808" x1="44.9068" y1="24.7054" x2="44.9068" y2="21.586" gradientUnits="userSpaceOnUse">
<stop stop-color="#FEEADB"/>
<stop offset="0.99" stop-color="#B17EB7"/>
</linearGradient>
<linearGradient id="paint5_linear_7_4808" x1="22.8645" y1="27.1683" x2="22.8645" y2="19.4114" gradientUnits="userSpaceOnUse">
<stop stop-color="#F4837E"/>
<stop offset="0.01" stop-color="#F3827D"/>
<stop offset="0.34" stop-color="#F27369"/>
<stop offset="0.67" stop-color="#F26A5D"/>
<stop offset="1" stop-color="#F26859"/>
</linearGradient>
<linearGradient id="paint6_linear_7_4808" x1="22.71" y1="24.8064" x2="22.71" y2="20.7838" gradientUnits="userSpaceOnUse">
<stop stop-color="#FEEADB"/>
<stop offset="0.99" stop-color="#B17EB7"/>
</linearGradient>
<linearGradient id="paint7_linear_7_4808" x1="23.5132" y1="24.7054" x2="23.5132" y2="21.586" gradientUnits="userSpaceOnUse">
<stop stop-color="#FEEADB"/>
<stop offset="0.99" stop-color="#B17EB7"/>
</linearGradient>
<linearGradient id="paint8_linear_7_4808" x1="34.2779" y1="35.9056" x2="34.2779" y2="7.46838" gradientUnits="userSpaceOnUse">
<stop stop-color="#F3797E"/>
<stop offset="0.11" stop-color="#F37C7A"/>
<stop offset="0.55" stop-color="#F5886E"/>
<stop offset="1" stop-color="#F68D6A"/>
</linearGradient>
<linearGradient id="paint9_linear_7_4808" x1="32.1412" y1="6.71676" x2="39.7016" y2="6.71676" gradientUnits="userSpaceOnUse">
<stop stop-color="#33122B"/>
<stop offset="1" stop-color="#441B3E"/>
</linearGradient>
<linearGradient id="paint10_linear_7_4808" x1="34.4422" y1="20.9324" x2="34.4422" y2="3.91223" gradientUnits="userSpaceOnUse">
<stop stop-color="#360F3A"/>
<stop offset="1" stop-color="#4C132E"/>
</linearGradient>
<linearGradient id="paint11_linear_7_4808" x1="34.145" y1="7.91702" x2="41.5299" y2="7.91702" gradientUnits="userSpaceOnUse">
<stop stop-color="#33122B"/>
<stop offset="1" stop-color="#441B3E"/>
</linearGradient>
<linearGradient id="paint12_linear_7_4808" x1="32.7852" y1="7.08807" x2="37.1769" y2="7.08807" gradientUnits="userSpaceOnUse">
<stop stop-color="#33122B"/>
<stop offset="1" stop-color="#441B3E"/>
</linearGradient>
<linearGradient id="paint13_linear_7_4808" x1="31.4419" y1="7.12966" x2="34.1435" y2="7.12966" gradientUnits="userSpaceOnUse">
<stop stop-color="#33122B"/>
<stop offset="1" stop-color="#441B3E"/>
</linearGradient>
<linearGradient id="paint14_linear_7_4808" x1="23.415" y1="11.9573" x2="24.9831" y2="11.9573" gradientUnits="userSpaceOnUse">
<stop stop-color="#33122B"/>
<stop offset="1" stop-color="#441B3E"/>
</linearGradient>
<linearGradient id="paint15_linear_7_4808" x1="25.9741" y1="9.39648" x2="27.9587" y2="9.39648" gradientUnits="userSpaceOnUse">
<stop stop-color="#33122B"/>
<stop offset="1" stop-color="#441B3E"/>
</linearGradient>
<linearGradient id="paint16_linear_7_4808" x1="36.8931" y1="8.82008" x2="43.2515" y2="8.82008" gradientUnits="userSpaceOnUse">
<stop stop-color="#33122B"/>
<stop offset="1" stop-color="#441B3E"/>
</linearGradient>
<linearGradient id="paint17_linear_7_4808" x1="42.0757" y1="11.3246" x2="44.9737" y2="11.3246" gradientUnits="userSpaceOnUse">
<stop stop-color="#33122B"/>
<stop offset="1" stop-color="#441B3E"/>
</linearGradient>
<linearGradient id="paint18_linear_7_4808" x1="24.7006" y1="10.1808" x2="25.9919" y2="10.1808" gradientUnits="userSpaceOnUse">
<stop stop-color="#33122B"/>
<stop offset="1" stop-color="#441B3E"/>
</linearGradient>
<linearGradient id="paint19_linear_7_4808" x1="36.7087" y1="17.5866" x2="43.7782" y2="17.5866" gradientUnits="userSpaceOnUse">
<stop stop-color="#360F3A"/>
<stop offset="1" stop-color="#4C132E"/>
</linearGradient>
<linearGradient id="paint20_linear_7_4808" x1="32.8117" y1="17.5867" x2="25.7422" y2="17.5867" gradientUnits="userSpaceOnUse">
<stop stop-color="#360F3A"/>
<stop offset="1" stop-color="#4C132E"/>
</linearGradient>
<linearGradient id="paint21_linear_7_4808" x1="39.9004" y1="21.8534" x2="39.784" y2="19.9526" gradientUnits="userSpaceOnUse">
<stop stop-color="#EDE1EF"/>
<stop offset="1" stop-color="#C0C7E6"/>
</linearGradient>
<linearGradient id="paint22_linear_7_4808" x1="39.6785" y1="21.8984" x2="39.8533" y2="19.6174" gradientUnits="userSpaceOnUse">
<stop stop-color="#4C132E"/>
<stop offset="1" stop-color="#360F3A"/>
</linearGradient>
<linearGradient id="paint23_linear_7_4808" x1="39.6844" y1="21.8302" x2="39.8488" y2="19.6855" gradientUnits="userSpaceOnUse">
<stop stop-color="#4C132E"/>
<stop offset="1" stop-color="#360F3A"/>
</linearGradient>
<linearGradient id="paint24_linear_7_4808" x1="39.7125" y1="21.454" x2="39.8192" y2="20.0618" gradientUnits="userSpaceOnUse">
<stop stop-color="#C9A8CF"/>
<stop offset="0.99" stop-color="#8361AA"/>
</linearGradient>
<linearGradient id="paint25_linear_7_4808" x1="29.7412" y1="21.8491" x2="29.8576" y2="19.9483" gradientUnits="userSpaceOnUse">
<stop stop-color="#EDE1EF"/>
<stop offset="1" stop-color="#C0C7E6"/>
</linearGradient>
<linearGradient id="paint26_linear_7_4808" x1="29.9625" y1="21.8946" x2="29.7879" y2="19.6167" gradientUnits="userSpaceOnUse">
<stop stop-color="#4C132E"/>
<stop offset="1" stop-color="#360F3A"/>
</linearGradient>
<linearGradient id="paint27_linear_7_4808" x1="29.9564" y1="21.8264" x2="29.792" y2="19.6817" gradientUnits="userSpaceOnUse">
<stop stop-color="#4C132E"/>
<stop offset="1" stop-color="#360F3A"/>
</linearGradient>
<linearGradient id="paint28_linear_7_4808" x1="29.9272" y1="21.4503" x2="29.8204" y2="20.058" gradientUnits="userSpaceOnUse">
<stop stop-color="#C9A8CF"/>
<stop offset="0.99" stop-color="#8361AA"/>
</linearGradient>
<linearGradient id="paint29_linear_7_4808" x1="34.726" y1="26.5445" x2="34.726" y2="23.6063" gradientUnits="userSpaceOnUse">
<stop stop-color="#F3797E"/>
<stop offset="0.11" stop-color="#F37C7A"/>
<stop offset="0.55" stop-color="#F5886E"/>
<stop offset="1" stop-color="#F68D6A"/>
</linearGradient>
<linearGradient id="paint30_linear_7_4808" x1="35.9409" y1="26.1166" x2="37.1281" y2="26.1166" gradientUnits="userSpaceOnUse">
<stop offset="0.02" stop-color="#7A55A3"/>
<stop offset="0.99" stop-color="#BD89BD"/>
</linearGradient>
<linearGradient id="paint31_linear_7_4808" x1="32.2158" y1="26.1017" x2="33.3613" y2="26.1017" gradientUnits="userSpaceOnUse">
<stop offset="0.02" stop-color="#7A55A3"/>
<stop offset="0.99" stop-color="#BD89BD"/>
</linearGradient>
<linearGradient id="paint32_linear_7_4808" x1="32.7981" y1="25.8226" x2="32.7981" y2="24.1886" gradientUnits="userSpaceOnUse">
<stop stop-color="#FEEADB"/>
<stop offset="0.99" stop-color="#B17EB7"/>
</linearGradient>
<linearGradient id="paint33_linear_7_4808" x1="36.5756" y1="25.8225" x2="36.5756" y2="24.1588" gradientUnits="userSpaceOnUse">
<stop stop-color="#FEEADB"/>
<stop offset="0.99" stop-color="#B17EB7"/>
</linearGradient>
<linearGradient id="paint34_linear_7_4808" x1="34.5456" y1="32.3346" x2="34.5456" y2="29.2003" gradientUnits="userSpaceOnUse">
<stop stop-color="#F8C0D8"/>
<stop offset="0.99" stop-color="#B17EB7"/>
</linearGradient>
</defs>
</svg>
