<svg width="434" height="841" viewBox="0 0 434 841" fill="none" xmlns="http://www.w3.org/2000/svg">
<path d="M118.389 87.6524C118.389 87.6524 120.745 61.5143 121.575 61.3332C121.68 47.9973 146.677 30.3622 152.228 26.5206C182.318 5.72076 201.269 6.99811 232.217 37.5878C256.642 61.724 248.402 104.41 247.534 107.356C253.953 110.797 247.964 119.805 241.097 118.452C241.097 118.452 243.099 124.19 236.824 126.583C230.548 128.976 228.536 126.878 228.536 126.878C228.536 126.878 232.828 133.17 223.844 135.134C223.844 135.134 227.811 137.44 221.679 139.566C215.546 141.692 210.386 132.617 210.386 132.617C210.386 132.617 211.13 139.604 205.246 141.206C199.361 142.807 192.561 135.849 192.561 135.849C192.561 135.849 186.429 143.589 180.887 142.731C175.346 141.864 171.875 135.706 171.875 135.706C171.875 135.706 172.533 140.119 167.039 139.347C162.061 138.651 162.528 131.13 162.662 129.719C162.499 131.149 161.489 138.813 158.322 137.984C152.123 136.363 153.592 131.33 152.476 132.855C151.36 134.371 145.828 132.97 141.193 129.776C136.968 126.869 139.066 121.864 139.066 121.864C139.066 121.864 134.898 123.18 132.104 118.433C132.104 118.433 131.818 125.42 126.496 122.236C121.832 119.443 127.126 111.35 127.126 111.35C127.126 111.35 123.244 114.019 118.609 111.102C114.889 108.767 120.383 104.801 120.383 104.801C120.383 104.801 113.497 106.346 111.456 103.219C109.415 100.092 118.389 87.6428 118.389 87.6428V87.6524Z" fill="url(#paint0_linear_7_4131)"/>
<path d="M125.781 82.4571C125.781 83.458 125.819 84.3636 125.886 85.1738V85.212C126.353 91.0268 128.184 92.6664 128.604 95.3164C128.966 97.6137 131.065 102.437 134.536 98.3001L134.546 98.2905C134.546 98.2905 136.138 79.5306 135.614 75.9941C135.614 75.9941 134.889 70.694 132.266 69.5025C128.9 67.9677 125.752 73.611 125.771 82.4476L125.781 82.4571Z" fill="url(#paint1_linear_7_4131)"/>
<path style="mix-blend-mode:multiply" opacity="0.6" d="M135.404 86.6418C135.404 86.6418 131.522 75.4316 128.995 74.3354C126.467 73.2487 126.41 82.2378 126.487 85.2406C126.553 88.2528 127.078 90.1021 127.078 90.1021C127.078 90.1021 126.954 86.5465 127.259 83.7249C127.698 79.6831 129.224 76.3849 130.282 76.8901C131.341 77.3953 132.028 82.6763 132.037 83.2578C132.037 83.8488 131.055 84.7449 130.616 87.8715C130.177 90.9982 130.797 94.5633 131.427 94.6205C132.056 94.6777 132.18 92.1135 132.638 89.1965C133.096 86.2796 134.765 87.128 135.242 89.1393L135.404 86.6323V86.6418Z" fill="url(#paint2_linear_7_4131)"/>
<path style="mix-blend-mode:multiply" opacity="0.6" d="M135.242 89.1394C135.242 89.1394 134.259 86.1462 133.22 87.271C132.171 88.3958 132.238 91.9896 131.522 92.3042C130.807 92.6187 130.378 89.6637 130.95 87.109C131.522 84.5543 132.676 82.3618 133.735 82.9719L135.404 86.6419L135.242 89.1489V89.1394Z" fill="url(#paint3_linear_7_4131)"/>
<path style="mix-blend-mode:multiply" d="M125.895 85.212C126.363 91.0268 128.184 92.6664 128.613 95.3164C128.976 97.6137 131.074 102.437 134.546 98.3001C134.355 98.4526 132.495 99.8729 130.998 98.8625C129.415 97.7853 129.195 95.6405 128.728 93.9247C128.261 92.2184 126.582 90.8266 125.895 85.2025V85.212Z" fill="url(#paint4_linear_7_4131)"/>
<path d="M221.583 137.45C227.086 138.661 233.724 137.984 236.433 133.38C236.481 133.389 243.7 135.076 248.583 123.38C252.818 113.228 250.214 108.109 250.214 108.109C250.214 108.109 254.325 104.696 254.954 102.037C256.375 96.0409 254.573 85.8983 250.3 85.7268C246.018 85.5552 242.918 88.7486 242.918 88.7486C242.918 88.7486 240.086 81.8375 236.652 82.4571C233.219 83.0767 224.559 94.8398 224.559 94.8398C224.559 94.8398 219.676 90.6836 217.663 93.2098C215.651 95.7359 213.105 102.132 213.105 102.132C213.105 102.132 207.439 105.097 208.326 111.903C208.326 111.903 206.037 116.536 210.501 120.368C211.464 121.197 212.752 121.988 214.43 122.684C214.43 122.684 211.788 127.212 213.248 132.312C213.877 134.514 217.396 136.525 221.574 137.45H221.583Z" fill="#010101"/>
<path d="M213.2 503.84L371.606 419.945L369.765 451.688L234.85 546.183C227.582 532.085 220.343 517.986 213.2 503.84Z" fill="url(#paint5_linear_7_4131)"/>
<path opacity="0.2" d="M213.2 503.84L323.766 445.282C328.783 454.462 333.618 464.08 339.15 473.136L234.85 546.193C227.582 532.094 220.343 517.996 213.2 503.85V503.84Z" fill="#201829"/>
<path d="M367.895 453.776L359.693 424.33L377.48 410.584L430.403 496.243C430.403 496.243 418.224 496.262 367.895 453.766V453.776Z" fill="#4296D2"/>
<path d="M430.403 496.243L377.481 410.584L383.403 405.999L434.027 492.973L430.403 496.243Z" fill="#2B2238"/>
<path d="M374.152 459.686C375.296 455.329 377.709 451.488 379.636 447.456C379.808 447.093 380.351 447.408 380.18 447.77C378.272 451.755 375.888 455.549 374.753 459.848C374.648 460.239 374.038 460.077 374.142 459.676L374.152 459.686Z" fill="#2B2238"/>
<path d="M378.892 464.252C380.037 459.895 382.449 456.054 384.376 452.022C384.548 451.659 385.091 451.974 384.92 452.336C383.012 456.321 380.628 460.115 379.493 464.414C379.388 464.805 378.778 464.643 378.883 464.242L378.892 464.252Z" fill="#2B2238"/>
<path d="M384.376 469.104C385.52 464.747 387.933 460.906 389.86 456.874C390.032 456.511 390.575 456.826 390.404 457.188C388.496 461.173 386.112 464.967 384.977 469.266C384.872 469.657 384.262 469.495 384.366 469.094L384.376 469.104Z" fill="#2B2238"/>
<path d="M121.842 148.002L48.3663 159.994L50.4931 80.1217C42.2147 77.4621 34.8996 81.4086 26.8691 78.0245C22.625 95.8026 7.30806 174.789 12.7634 191.919C21.3279 218.8 117.045 189.602 117.045 189.602L121.851 148.012L121.842 148.002Z" fill="url(#paint6_linear_7_4131)"/>
<path d="M26.5925 77.1761C26.5925 77.1761 23.0924 51.0858 26.2111 51.5815C29.3298 52.0676 31.0083 64.3073 31.0083 64.3073C31.0083 64.3073 29.7685 44.1652 32.1719 44.1366C34.5753 44.1175 39.4966 63.64 39.4966 63.64C39.4966 63.64 39.2009 40.0472 41.1465 40.3522C43.0921 40.6572 47.0883 63.6305 47.0883 63.6305C47.0883 63.6305 49.7683 46.4911 52.887 46.9773C56.0057 47.4634 52.372 73.2297 52.372 73.2297C52.372 73.2297 60.7553 68.1584 62.72 70.8561C64.6942 73.5633 50.722 83.744 50.722 83.744L48.3758 167.573L28.0995 98.1571L26.5925 77.1666V77.1761Z" fill="url(#paint7_linear_7_4131)"/>
<path d="M61.833 418.591L117.769 783.771L83.9405 784.238L16.8073 518.892L61.833 418.591Z" fill="url(#paint8_linear_7_4131)"/>
<path opacity="0.2" d="M63.1587 740.884L120.974 430.888L51.8855 402.796L31.7808 735.584C42.31 736.88 52.8583 739.092 63.1682 740.875L63.1587 740.884Z" fill="#201829"/>
<path d="M91.7993 229.028L84.446 322.704L201.583 325.459L177.273 261.982L91.7993 229.028Z" fill="#069383"/>
<path d="M167.058 115.954L155.537 152.397L126.468 148.66L154.231 196.208L212.494 171.586L189.919 161.233L200.945 111.055L167.058 115.954Z" fill="url(#paint9_linear_7_4131)"/>
<path d="M194.078 27.8552C194.078 27.8552 151.589 22.7648 136.768 71.0087C121.937 119.243 156.119 137.097 180.134 136.745C204.149 136.392 223.596 113.504 229.032 99.301C234.478 85.0977 232.322 34.3563 194.078 27.8647V27.8552Z" fill="url(#paint10_linear_7_4131)"/>
<path d="M89.415 266.405C89.415 266.405 122.09 286.195 185.065 285.241C185.065 285.241 232.456 344.381 230.777 409.869C229.604 455.835 209.28 565.706 209.28 565.706C209.28 565.706 151.017 613.206 136.444 571.33C121.871 529.454 107.908 363.493 107.908 363.493L140.354 402.872L101.709 604.064L131.188 723.02L37.3984 719.674C37.3984 719.674 7.05057 655.997 2.692 591.892C-4.06996 492.401 41.0989 357.374 89.415 266.405Z" fill="#069383"/>
<path d="M174.927 567.164C166.248 544.639 156.481 519.816 151.608 494.813C229.604 465.348 306.361 436.627 306.361 436.627L334.629 516.089L173.715 586.391C169.891 578.098 178.217 575.696 174.927 567.164Z" fill="#069383"/>
<path d="M325.569 530.188L278.016 444.043L311.94 430.535L348.086 520.217L325.569 530.188Z" fill="#069383"/>
<path d="M249.594 195.894L363.985 344.743C363.985 344.743 380.151 334.6 383.861 338.242C393.484 347.669 401.114 379.813 383.966 347.898C383.966 347.898 400.303 398.601 376.698 349.738C376.698 349.738 386.541 396.276 369.259 355.82C369.259 355.82 374.314 395.113 364.128 359.909C364.128 359.909 358.32 367.897 350.9 361.225C343.47 354.552 219.132 235.215 214.573 220.125C210.015 205.035 249.604 195.894 249.604 195.894H249.594Z" fill="url(#paint11_linear_7_4131)"/>
<path opacity="0.2" d="M117.789 379.174C93.1059 360.453 75.0804 339.624 62.1573 320.836C31.2468 396.009 9.7878 480.362 0.0788116 557.432C-1.9908 639.563 37.3984 719.674 37.3984 719.674L131.188 723.02L100.917 603.912L123.32 489.284L123.921 485.423C122.786 403.606 117.789 379.193 117.789 379.193V379.174Z" fill="#201829"/>
<path d="M31.2468 714.308L134.66 718.445L136.644 739.521L41.3945 754.668L31.2468 714.308Z" fill="#0B7A71"/>
<path opacity="0.2" d="M182.089 274.555L177.273 261.973L91.7993 229.028L88.8236 266.891C114.136 272.992 150.511 279.16 182.089 274.555Z" fill="#201829"/>
<path d="M86.7159 781.206L117.102 777.737L127.898 797.45L34.9472 836.256C34.9472 836.256 36.8356 824.236 86.7254 781.216L86.7159 781.206Z" fill="#4296D2"/>
<path d="M34.9377 836.247L127.889 797.44L131.484 804.008L37.6082 840.336L34.9377 836.247Z" fill="#2B2238"/>
<path d="M79.9253 786.468C84.0264 788.27 87.4217 791.244 91.084 793.761C91.4178 793.989 91.1031 794.533 90.7693 794.304C87.1069 791.787 83.7116 788.813 79.6106 787.012C79.2386 786.85 79.5629 786.306 79.9253 786.468Z" fill="#2B2238"/>
<path d="M74.6608 790.434C78.7618 792.235 82.1571 795.21 85.8194 797.726C86.1532 797.955 85.8385 798.498 85.5047 798.269C81.8424 795.753 78.4471 792.779 74.346 790.977C73.974 790.815 74.2983 790.272 74.6608 790.434Z" fill="#2B2238"/>
<path d="M69.0051 795.076C73.1061 796.878 76.5014 799.852 80.1638 802.368C80.4976 802.597 80.1829 803.141 79.8491 802.912C76.1867 800.395 72.7914 797.421 68.6904 795.619C68.3184 795.457 68.6427 794.914 69.0051 795.076Z" fill="#2B2238"/>
<path d="M116.93 148.584L78.5234 152.826L81.7374 208.057L116.93 148.584Z" fill="#F2D7C3"/>
<path d="M144.779 150.929C144.779 150.929 130.616 145.495 118.447 147.879C106.277 150.262 82.7483 184.102 76.1008 199.144C69.4533 214.186 64.6369 238.084 64.6369 238.084C64.6369 238.084 153.058 283.001 191.445 270.781L216.614 226.474L234.936 246.492L275.221 215.273C275.221 215.273 253.075 178.573 227.239 172.396L203.653 165.495C203.653 165.495 144.235 181.929 144.798 150.929H144.779Z" fill="#F2D7C3"/>
<path d="M238.369 100.864C237.911 102.075 237.444 103.162 236.977 104.115L236.948 104.163C233.591 111.007 229.938 112.17 228.069 115.211C226.447 117.832 220.935 122.741 217.263 116.164C217.253 116.154 217.244 116.145 217.244 116.145C217.244 116.145 223.157 92.6473 225.589 88.596C225.589 88.596 229.137 82.4953 233.848 82.2188C239.904 81.8661 242.384 90.1403 238.369 100.864Z" fill="url(#paint12_linear_7_4131)"/>
<path style="mix-blend-mode:multiply" opacity="0.6" d="M221.145 101.608C221.145 101.608 232.389 89.7399 236.91 89.5588C241.43 89.3777 237.472 100.311 236.004 103.934C234.535 107.556 232.866 109.567 232.866 109.567C232.866 109.567 234.668 105.306 235.441 101.751C236.557 96.6414 235.613 91.9515 233.705 92.0849C231.798 92.2184 228.307 98.3191 228.04 99.0341C227.763 99.749 228.937 101.284 228.231 105.278C227.525 109.272 224.931 113.323 223.891 113.104C222.861 112.885 223.815 109.72 224.397 105.974C224.979 102.227 221.946 102.504 220.267 104.725L221.145 101.608Z" fill="url(#paint13_linear_7_4131)"/>
<path style="mix-blend-mode:multiply" opacity="0.6" d="M220.267 104.725C220.267 104.725 223.176 101.532 224.34 103.371C225.503 105.211 223.777 109.539 224.778 110.244C225.78 110.95 227.792 107.547 228.031 104.191C228.269 100.826 227.42 97.6519 225.455 97.9093L221.135 101.608L220.258 104.725H220.267Z" fill="url(#paint14_linear_7_4131)"/>
<path style="mix-blend-mode:multiply" d="M236.948 104.163C233.591 111.007 229.938 112.17 228.069 115.211C226.447 117.832 220.935 122.741 217.263 116.164C217.501 116.431 219.819 119.005 222.661 118.442C225.665 117.851 226.981 115.344 228.507 113.476C230.024 111.607 233.324 110.683 236.948 104.163Z" fill="url(#paint15_linear_7_4131)"/>
<path d="M249.194 78.5012C247.2 82.7432 245.159 76.8712 245.159 76.8712C242.746 83.4772 237.711 83.2008 237.711 83.2008C237.711 83.2008 242.022 86.2988 240.896 90.9411C239.78 95.5834 231.273 93.248 231.273 93.248C231.273 93.248 231.569 102.094 227.258 102.313C222.937 102.533 224.168 98.9484 224.168 98.9484C218.789 99.8635 222.241 94.9924 222.241 94.9924C220.868 92.9715 226.428 88.6533 226.428 88.6533C223.91 87.7382 225.532 82.7146 225.532 82.7146C224.158 84.8785 220.229 82.4477 220.229 82.4477C220.229 82.4477 218.283 85.479 215.384 84.4209C212.475 83.3533 216.347 72.3337 216.347 72.3337C213.724 70.7132 219.246 59.341 219.246 59.341C219.246 59.341 216.814 60.3705 215.737 59.0073C214.678 57.6728 217.139 53.5071 217.234 53.3451C217.158 53.4404 215.87 54.8988 211.502 53.6787C207.077 52.4395 208.374 45.2615 208.441 45.1853C204.139 46.0622 200.506 42.2683 200.506 42.2683C200.506 42.2683 198.35 45.8716 196.595 45.3378C194.84 44.804 190.348 37.5402 190.348 37.5402C186.524 38.2552 183.081 36.2724 183.081 36.2724C183.443 36.587 178.78 43.3455 175.88 41.9156C173.095 40.5429 172.723 39.1893 172.695 39.094C172.676 39.2275 172.294 42.1539 169.061 47.1204C165.752 52.2107 162.003 49.1412 162.003 49.1412C162.003 49.1412 161.984 55.2897 160.802 57.5584C159.619 59.8271 157.75 61.5525 157.75 61.5525C157.75 61.5525 156.271 66.9193 154.23 65.7563C152.189 64.6029 152.609 62.6297 152.581 62.0196C152.552 61.4095 151.236 63.6592 147.917 64.3169C144.598 64.9747 145.933 61.0187 145.933 61.0187C144.273 63.0014 141.641 61.8671 141.641 61.8671C141.641 61.8671 141.183 68.4064 139.228 70.3319C134.774 74.7264 133.258 65.661 133.258 65.661C130.149 64.2407 132.285 60.218 132.285 60.218C132.285 60.218 131.312 61.095 129.567 59.1217C127.831 57.139 128.775 50.0278 131.188 47.4349C133.43 45.0327 133.649 47.4921 133.668 47.8639C133.668 47.8925 133.668 47.9115 133.668 47.9115C133.668 47.9115 128.632 43.9174 129.119 41.3627C129.605 38.8176 132.733 34.5661 132.733 34.5661C132.733 34.5661 130.168 31.5824 130.273 28.6369C130.378 25.7009 132.171 18.9805 134.908 19.3141C137.559 19.6478 137.74 21.8021 137.731 22.0214C137.731 22.0214 139.228 17.4744 140.592 16.1494C141.479 15.2914 144.521 14.0999 145.637 14.1475C148.336 14.2715 149.996 15.9492 149.996 15.9492C152.752 14.567 155.604 11.4594 155.604 11.4594C155.604 11.4594 153.715 9.83886 155.394 7.67499C159.047 2.94688 169.71 0.954595 175.022 0.172932C182.242 -0.894705 185.685 3.32818 185.618 3.37584C192.761 2.94688 197.95 4.81525 197.95 4.81525C197.95 4.81525 197.969 3.87153 200.858 3.52836C203.624 3.20426 205.331 4.52927 207.039 7.11257L207.067 7.16023C207.067 7.16023 209.251 5.60644 212.208 7.75125C215.727 10.2964 217.93 17.5411 216.156 26.8353C217.301 27.1784 217.921 27.4358 219.294 28.1889C233.972 22.7935 233.438 33.8893 233.438 33.8893C233.438 33.8893 235.784 33.5271 239.78 34.976C243.662 36.3773 243.548 37.1303 243.214 38.5221C242.87 39.9519 239.942 39.9233 239.942 39.9233C248.23 44.4989 246.905 44.1462 246.905 44.1462C249.871 46.6723 249.747 48.9601 249.499 49.9515C249.413 50.2851 249.318 50.4758 249.318 50.4758C249.318 50.4758 254.287 54.1934 253.743 56.9293C253.199 59.6651 249.804 58.2257 249.804 58.2257C250.186 60.5421 249.413 63.1254 248.707 64.8603C248.211 66.0709 247.754 66.8716 247.754 66.8716C247.754 66.8716 251.187 74.2688 249.194 78.5108V78.5012Z" fill="#010101"/>
<g style="mix-blend-mode:multiply">
<path d="M249.194 78.5011C247.201 82.7431 245.16 76.8711 245.16 76.8711C242.747 83.4771 237.711 83.2006 237.711 83.2006C237.711 83.2006 242.022 86.2987 240.896 90.941C239.781 95.5833 231.273 93.2478 231.273 93.2478C231.273 93.2478 231.569 102.094 227.258 102.313C222.938 102.532 224.168 98.9483 224.168 98.9483C218.789 99.8634 222.241 94.9923 222.241 94.9923C220.868 92.9714 226.428 88.6532 226.428 88.6532C223.91 87.7381 225.532 82.7145 225.532 82.7145C224.158 84.8783 220.229 82.4476 220.229 82.4476C220.229 82.4476 218.283 85.4789 215.384 84.4208C212.475 83.3531 216.347 72.3336 216.347 72.3336C213.725 70.7131 219.247 59.3408 219.247 59.3408C219.247 59.3408 216.815 60.3703 215.737 59.0072C214.659 57.6441 217.234 53.3354 217.234 53.3354C217.234 53.3354 216.004 54.9368 211.502 53.6786C207.077 52.4393 208.374 45.2614 208.441 45.1851C204.14 46.0621 200.506 42.2682 200.506 42.2682C200.506 42.2682 198.35 45.8715 196.596 45.3376C194.841 44.8038 190.349 37.5401 190.349 37.5401C186.524 38.255 183.081 36.2723 183.081 36.2723C183.444 36.5868 178.78 43.3453 175.88 41.9155C173.096 40.5428 172.724 39.1892 172.695 39.0939C172.676 39.2273 172.294 42.1538 169.061 47.1202C165.752 52.2106 162.004 49.1411 162.004 49.1411C162.004 49.1411 161.985 55.2895 160.802 57.5583C159.619 59.827 157.75 61.5524 157.75 61.5524C157.75 61.5524 156.272 66.9192 154.231 65.7562C152.19 64.6028 152.609 62.6295 152.581 62.0195C152.552 61.4094 151.236 63.6591 147.917 64.3168C144.598 64.9745 145.933 61.0186 145.933 61.0186C144.274 63.0013 141.641 61.867 141.641 61.867C141.641 61.867 141.184 68.4062 139.228 70.3318C134.775 74.7263 133.258 65.6609 133.258 65.6609C130.149 64.2405 132.285 60.2178 132.285 60.2178C132.285 60.2178 131.312 61.0948 129.567 59.1216C127.831 57.1388 128.776 50.0276 131.189 47.4348C133.601 44.8419 133.668 47.9114 133.668 47.9114C133.668 47.9114 128.633 43.9173 129.119 41.3626C129.605 38.8174 132.734 34.5659 132.734 34.5659C132.734 34.5659 130.168 31.5823 130.273 28.6367C130.378 25.7007 132.171 18.9803 134.908 19.314C137.559 19.6476 137.741 21.802 137.731 22.0212C138.284 25.5864 156.939 26.0534 156.939 26.0534C156.939 26.0534 153.306 29.3517 159.572 30.1429C167.43 31.1343 174.354 24.6808 174.354 24.6808C174.354 24.6808 181.746 28.8369 187.497 28.6558C204.368 28.1125 214.612 24.8238 216.767 21.2777L216.157 26.8351L219.294 28.1887C219.294 28.1887 214.783 29.5614 214.135 35.1474C213.849 37.5877 222.671 40.6381 223.968 38.255C223.968 38.255 223.081 43.5741 228.851 43.7838C228.851 43.7838 224.273 44.9945 225.484 50.1992C226.686 55.4039 247.458 57.1198 249.327 50.4852C249.327 50.4852 254.296 54.2028 253.753 56.9387C253.209 59.6745 249.814 58.2351 249.814 58.2351C250.462 62.1625 247.763 66.881 247.763 66.881C247.763 66.881 251.197 74.2782 249.203 78.5202L249.194 78.5011Z" fill="#010101"/>
</g>
<g style="mix-blend-mode:multiply">
<path d="M249.194 78.5011C247.201 82.7431 245.16 76.8711 245.16 76.8711C242.747 83.4771 237.711 83.2006 237.711 83.2006C237.711 83.2006 242.022 86.2987 240.896 90.941C239.781 95.5833 231.273 93.2479 231.273 93.2479C231.273 93.2479 231.569 102.094 227.258 102.313C222.938 102.533 224.168 98.9483 224.168 98.9483C218.789 99.8634 222.241 94.9923 222.241 94.9923C220.868 92.9714 226.428 88.6532 226.428 88.6532C223.91 87.7381 225.532 82.7145 225.532 82.7145C224.158 84.8784 220.229 82.4476 220.229 82.4476C220.229 82.4476 218.283 85.4789 215.384 84.4208C212.475 83.3532 216.347 72.3336 216.347 72.3336C213.725 70.7131 219.247 59.3409 219.247 59.3409C219.247 59.3409 216.815 60.3704 215.737 59.0072C214.678 57.6727 217.139 53.507 217.234 53.3449C217.158 53.4403 215.87 54.8987 211.502 53.6786C207.077 52.4394 208.374 45.2614 208.441 45.1852C204.14 46.0621 200.506 42.2682 200.506 42.2682C200.506 42.2682 198.35 45.8715 196.595 45.3377C194.841 44.8039 190.349 37.5401 190.349 37.5401C186.524 38.255 183.081 36.2723 183.081 36.2723C183.444 36.5869 178.78 43.3454 175.88 41.9155C173.095 40.5428 172.724 39.1892 172.695 39.0939C172.676 39.2274 172.294 42.1538 169.061 47.1202C165.752 52.2106 162.004 49.1411 162.004 49.1411C162.004 49.1411 161.985 55.2896 160.802 57.5583C159.619 59.827 157.75 61.5524 157.75 61.5524C157.75 61.5524 156.272 66.9192 154.231 65.7562C152.19 64.6028 152.609 62.6296 152.581 62.0195C152.552 61.4094 151.236 63.6591 147.917 64.3168C144.598 64.9746 145.933 61.0186 145.933 61.0186C144.274 63.0013 141.641 61.867 141.641 61.867C141.641 61.867 141.184 68.4062 139.228 70.3318C134.775 74.7263 133.258 65.6609 133.258 65.6609C130.149 64.2406 132.285 60.2179 132.285 60.2179C132.285 60.2179 131.312 61.0948 129.567 59.1216C127.831 57.1389 128.776 50.0276 131.188 47.4348C133.43 45.0326 133.649 47.492 133.668 47.8638C133.668 47.8924 133.668 47.9114 133.668 47.9114C132.838 52.6395 137.34 49.0172 137.34 49.0172C137.34 49.0172 137.302 51.9341 140.43 51.0667C140.249 51.1239 137.95 51.9246 140.373 53.0494C142.891 54.2219 145.657 49.98 145.657 49.98C145.657 49.98 146.582 52.5442 149.7 52.7635C149.7 52.7635 146.362 54.1457 150.044 55.2514C153.725 56.3572 152.781 48.9219 152.781 48.9219C152.781 48.9219 154.832 51.0953 157.292 48.8361C159.762 46.5769 159.533 41.4198 159.533 41.4198C159.533 41.4198 160.439 45.0136 164.531 44.4893C168.622 43.965 171.684 36.7966 171.684 36.7966C171.684 36.7966 173.134 38.522 174.984 39.113C176.825 39.6944 178.608 33.8034 178.608 33.8034C178.608 33.8034 178.684 36.0054 183.091 34.4325C183.091 34.4325 182.537 35.9196 185.561 36.1102C188.584 36.3009 192.523 32.7548 192.523 32.7548C192.523 32.7548 192.037 38.5792 194.354 39.6944C196.672 40.8097 197.492 32.5928 197.492 32.5928C197.492 32.5928 200.029 36.7489 202.814 35.6146C205.599 34.4802 206.476 31.9445 206.476 31.9445C206.476 31.9445 205.036 36.0149 208.269 36.5583C211.369 37.073 212.923 34.9568 213.057 34.7757C212.866 35.0998 209.309 41.3626 213.887 43.4121C213.333 43.1738 209.042 41.4103 209.862 44.2796C210.739 47.349 215.737 45.2233 215.737 45.2233C215.737 45.2233 213.791 47.4348 215.909 49.2174C217.854 50.857 219.046 49.5701 219.237 49.3413C218.961 49.7321 216.366 53.5642 220.696 55.852C220.477 55.7567 217.625 54.6032 218.283 56.4811C218.97 58.4353 222.613 59.0168 222.613 59.0168C222.613 59.0168 219.514 61.1902 220.887 62.9537C221.431 63.6495 222.327 63.7639 223.224 63.64C220.553 64.7553 217.11 66.9001 218.741 70.1984C220.62 73.9827 224.206 71.8951 225.961 70.5415C224.807 71.6759 223.281 73.7254 224.931 75.4889C227.363 78.0912 231.559 72.305 231.559 72.305C231.559 72.305 231.226 75.527 235.031 75.222C235.031 75.222 230.768 78.0817 233.257 79.6641C235.756 81.2465 243.157 80.2742 241.43 76.5279C241.43 76.5279 244.473 74.5452 242.785 72.0572C242.785 72.0572 247.573 72.1906 247.725 66.8715C247.725 66.8715 251.159 74.2687 249.165 78.5107L249.194 78.5011Z" fill="#010101"/>
</g>
<g style="mix-blend-mode:soft-light" opacity="0.5">
<path d="M187.058 20.1815C187.058 20.1815 189.7 21.8592 186.867 22.3835C184.035 22.9078 179.61 20.5056 179.61 20.5056C171.112 20.906 168.67 18.9137 170.272 15.6822C170.272 15.6822 165.351 8.58048 173.563 8.97131C175.642 9.06663 174.478 10.7729 174.44 10.8015C178.751 10.5442 177.96 12.5651 177.96 12.5651C177.96 12.5651 183.701 9.85783 185.456 9.8197C203.357 9.40027 196.405 14.4811 196.405 14.4811C213.381 22.3168 187.039 20.191 187.039 20.191L187.058 20.1815Z" fill="#010101"/>
</g>
<path d="M159.848 89.0727C161.088 88.9965 158.284 78.6347 151.389 75.4413C143.053 71.5902 139.324 79.0541 139.009 80.6746C138.685 82.2951 153.897 89.4064 159.858 89.0632L159.848 89.0727Z" fill="url(#paint16_linear_7_4131)"/>
<path d="M149.942 87.276C146.762 86.7789 144.595 83.7532 145.102 80.5179C145.608 77.2827 148.596 75.0629 151.776 75.56C154.955 76.0571 157.122 79.0828 156.616 82.3181C156.11 85.5534 153.122 87.7731 149.942 87.276Z" fill="url(#paint17_linear_7_4131)"/>
<path d="M149.995 86.9369C147.003 86.4691 144.964 83.619 145.441 80.5709C145.918 77.5229 148.73 75.4313 151.723 75.8991C154.715 76.3669 156.754 79.217 156.277 82.265C155.8 85.3131 152.987 87.4047 149.995 86.9369Z" fill="url(#paint18_linear_7_4131)"/>
<path style="mix-blend-mode:multiply" d="M147.383 80.6079C146.944 82.562 148.136 84.4971 150.053 84.9356C151.97 85.3741 153.878 84.1444 154.326 82.1998C154.774 80.2551 153.573 78.3105 151.656 77.872C149.739 77.4335 147.831 78.6632 147.383 80.6079Z" fill="url(#paint19_linear_7_4131)"/>
<path d="M159.972 87.1281C159.972 87.1281 159.314 73.3441 151.608 70.37C143.892 67.3959 139.715 78.9683 139.715 78.9683C139.715 78.9683 143.015 73.1344 150.473 75.2602C157.941 77.3859 159.972 87.1281 159.972 87.1281Z" fill="url(#paint20_linear_7_4131)"/>
<path d="M160.077 87.7L158.427 89.0346C158.427 89.0346 160.01 89.5589 160.277 89.1394C160.544 88.72 160.077 87.7 160.077 87.7Z" fill="#D86B7C"/>
<path d="M157.321 88.9392C157.321 88.9392 150.845 88.4722 145.685 86.1558C140.526 83.8298 139.219 81.1703 139.219 81.1703C139.219 81.1703 146.982 86.4036 157.321 88.9392Z" fill="#D86B7C"/>
<path d="M147.106 79.3782C147.383 79.769 145.771 79.4735 144.684 78.73C143.721 78.0627 143.358 77.2525 143.492 77.1476C143.625 77.0523 146.029 77.8435 147.106 79.3782Z" fill="white"/>
<path d="M147.946 79.8929C148.432 79.8357 148.909 80.198 148.871 80.4458C148.833 80.6937 148.203 80.8748 147.974 80.7127C147.736 80.5507 147.679 79.9215 147.946 79.8929Z" fill="white"/>
<g style="mix-blend-mode:multiply" opacity="0.6">
<path d="M160.077 87.7C160.077 87.7 156.71 80.0263 150.711 77.3763C144.712 74.7263 140.869 77.6432 140.869 77.6432C140.869 77.6432 142.795 73.182 150.874 75.67C158.952 78.1484 160.077 87.7 160.077 87.7Z" fill="#DF0198"/>
</g>
<path d="M160.077 87.7C160.077 87.7 158.246 78.1771 149.891 75.6033C142.433 73.3155 139.333 79.7214 139.333 79.7214C139.333 79.7214 139.877 73.6206 145.409 73.4204C150.664 73.2297 158.589 77.853 160.077 87.7Z" fill="#401432"/>
<path d="M185.217 93.0382C184.063 92.5902 189.9 83.582 197.435 82.6478C206.543 81.523 207.811 89.7781 207.63 91.4177C207.439 93.0573 190.787 95.1926 185.217 93.0382Z" fill="url(#paint21_linear_7_4131)"/>
<path d="M195.207 94.35C192.028 93.8523 189.861 90.8262 190.368 87.5911C190.875 84.3559 193.863 82.1367 197.043 82.6343C200.223 83.132 202.389 86.1581 201.882 89.3932C201.375 92.6284 198.387 94.8476 195.207 94.35Z" fill="url(#paint22_linear_7_4131)"/>
<path d="M195.27 94.0163C192.278 93.5485 190.239 90.6984 190.716 87.6504C191.193 84.6023 194.005 82.5107 196.998 82.9785C199.99 83.4463 202.029 86.2964 201.552 89.3445C201.075 92.3925 198.263 94.4841 195.27 94.0163Z" fill="url(#paint23_linear_7_4131)"/>
<path style="mix-blend-mode:multiply" d="M199.676 88.7867C199.504 90.779 197.769 92.2565 195.813 92.0849C193.858 91.9134 192.409 90.1689 192.59 88.1766C192.761 86.1843 194.497 84.7068 196.452 84.8784C198.408 85.05 199.857 86.7944 199.676 88.7867Z" fill="url(#paint24_linear_7_4131)"/>
<path d="M185.704 91.1508C185.704 91.1508 190.539 78.2248 198.789 77.7481C207.039 77.2715 207.487 89.5589 207.487 89.5589C207.487 89.5589 206.133 83.0005 198.379 82.7431C190.625 82.4953 185.704 91.1413 185.704 91.1413V91.1508Z" fill="url(#paint25_linear_7_4131)"/>
<path d="M185.427 91.6656L186.591 93.4386C186.591 93.4386 184.922 93.4577 184.798 92.9715C184.664 92.4949 185.427 91.6656 185.427 91.6656Z" fill="#D86B7C"/>
<path d="M187.669 93.6864C187.669 93.6864 193.982 95.2212 199.6 94.5825C205.217 93.9438 207.287 91.8181 207.287 91.8181C207.287 91.8181 198.293 94.4395 187.678 93.6864H187.669Z" fill="#D86B7C"/>
<path d="M200.315 87.7C199.934 87.986 201.555 88.2053 202.814 87.824C203.939 87.4808 204.531 86.8135 204.435 86.6801C204.34 86.5466 201.812 86.5657 200.315 87.7Z" fill="white"/>
<path d="M199.361 87.9383C198.913 87.7381 198.35 87.9383 198.312 88.1862C198.274 88.434 198.818 88.7962 199.085 88.7105C199.361 88.6247 199.609 88.0527 199.361 87.9383Z" fill="white"/>
<g style="mix-blend-mode:multiply" opacity="0.6">
<path d="M185.427 91.6655C185.427 91.6655 190.978 85.3932 197.502 84.6973C204.025 84.0014 206.791 87.9574 206.791 87.9574C206.791 87.9574 206.324 83.1244 197.873 83.0196C189.423 82.9147 185.437 91.6655 185.437 91.6655H185.427Z" fill="#DF0198"/>
</g>
<path d="M185.427 91.6655C185.427 91.6655 190.081 83.153 198.818 83.2579C206.619 83.3532 207.611 90.3977 207.611 90.3977C207.611 90.3977 208.956 84.4209 203.758 82.543C198.808 80.7509 189.853 82.7431 185.427 91.6655Z" fill="#401432"/>
<path d="M158.856 100.159C158.856 100.159 158.961 100.798 161.26 101.236C163.558 101.684 165.399 104.039 169.319 104.658C173.239 105.268 175.518 103.562 177.845 103.829C180.172 104.105 180.659 103.562 180.659 103.562C181.24 102.104 181.25 100.607 181.021 99.2819C181.021 99.2819 181.021 99.2438 181.021 99.2342C180.601 96.9083 179.476 95.1448 179.476 95.1448C174.393 91.6273 168.489 90.7027 162.566 92.5043C162.566 92.5043 161.527 93.3622 160.554 94.7731V94.7921C159.61 96.1553 158.723 98.0332 158.875 100.159H158.856Z" fill="url(#paint26_linear_7_4131)"/>
<path d="M163.882 102.409C163.882 102.409 162.347 100.607 160.039 100.921L163.882 102.409Z" fill="#812852"/>
<path d="M179.047 103.906C179.047 103.906 176.91 102.884 174.383 104.317L179.047 103.906Z" fill="#812852"/>
<g style="mix-blend-mode:multiply" opacity="0.6">
<path d="M158.856 100.159C158.856 100.159 158.961 100.798 161.26 101.236C163.558 101.684 165.399 104.039 169.319 104.658C173.239 105.268 175.518 103.562 177.845 103.829C180.172 104.105 180.659 103.562 180.659 103.562C181.24 102.104 181.25 100.607 181.021 99.282C181.05 99.6633 181.164 102.123 180.153 102.561C179.056 103.028 173.429 101.779 169.862 101.217C166.295 100.655 160.23 99.7205 159.696 98.6719C159.181 97.6614 160.43 95.0305 160.554 94.7922C159.61 96.1553 158.723 98.0332 158.875 100.159H158.856Z" fill="#DF0198"/>
</g>
<path style="mix-blend-mode:multiply" opacity="0.6" d="M162.566 92.4948C162.566 92.4948 163.224 96.6224 162.643 99.3582C162.643 99.3582 164.006 96.8226 163.434 92.2565L162.566 92.4948Z" fill="url(#paint27_linear_7_4131)"/>
<path style="mix-blend-mode:multiply" opacity="0.6" d="M179.276 95.1163C179.276 95.1163 177.387 98.853 177.111 101.627C177.111 101.627 176.586 98.7863 178.522 94.6206L179.276 95.1163Z" fill="url(#paint28_linear_7_4131)"/>
<g style="mix-blend-mode:multiply" opacity="0.6">
<path d="M180.153 102.561C180.153 102.561 180.601 103.247 180.668 103.572C180.735 103.896 174.784 107.976 168.956 107.06C163.129 106.145 158.885 100.769 158.866 100.159C158.856 99.5489 159.924 98.9388 159.924 98.9388C159.924 98.9388 164.369 100.359 169.862 101.217C175.365 102.075 180.153 102.561 180.153 102.561Z" fill="#DF0198"/>
</g>
<path d="M165.418 99.1485C166.314 98.8053 165.075 97.2134 164.674 97.2134C164.273 97.2134 163.921 98.0523 164.045 98.6528C164.169 99.2534 165.036 99.2915 165.418 99.1485Z" fill="#FBCBBB"/>
<g style="mix-blend-mode:multiply">
<path d="M163.243 75.365C163.243 75.365 161.698 69.35 158.685 65.108L159.352 67.8438C159.352 67.8438 158.465 66.6332 157.016 65.5179C155.556 64.4026 143.759 61.276 141.279 61.3332L141.832 60.3322C141.832 60.3322 137.083 63.2396 133.134 70.1698C133.134 70.1698 136.758 67.1861 138.837 67.167C140.916 67.148 158.942 72.8007 163.043 76.69L163.253 75.3745L163.243 75.365Z" fill="#010101"/>
<path d="M185.542 78.8538C185.542 78.8538 188.851 73.6014 193.019 70.4748L191.55 72.877C191.55 72.877 192.761 71.9905 194.488 71.3708C196.214 70.7512 208.412 71.3708 210.749 72.1906L210.53 71.0753C210.53 71.0753 214.163 75.2982 215.804 83.1053C215.804 83.1053 213.267 79.1589 211.292 78.5011C209.318 77.8434 190.434 77.729 185.332 80.1789L185.542 78.8634V78.8538Z" fill="#010101"/>
</g>
<path style="mix-blend-mode:multiply" opacity="0.6" d="M180.592 85.4503C180.592 85.4503 176.863 103.381 180.544 108.814C184.226 114.257 202.146 115.697 211.674 111.36C221.202 107.022 216.986 83.0577 216.986 83.0577C216.986 83.0577 212.799 75.5366 199.295 74.6691C185.79 73.8017 180.592 85.4408 180.592 85.4408V85.4503Z" fill="url(#paint29_linear_7_4131)"/>
<path style="mix-blend-mode:multiply" opacity="0.6" d="M165.962 83.3341C165.962 83.3341 163.921 99.4059 159.209 103.114C154.488 106.813 138.513 103.076 131.436 96.651C124.36 90.2261 134.717 70.5701 134.717 70.5701C134.717 70.5701 140.459 65.2034 152.438 68.2156C164.416 71.2279 165.971 83.3437 165.971 83.3437L165.962 83.3341Z" fill="url(#paint30_linear_7_4131)"/>
<path d="M182.204 88.7581C181.851 88.3387 179.352 85.498 174.068 84.335C168.298 83.0672 164.111 84.8689 163.654 85.069" stroke="url(#paint31_linear_7_4131)" stroke-miterlimit="10"/>
<path d="M217.663 93.2098L226.276 87.538" stroke="url(#paint32_linear_7_4131)" stroke-miterlimit="10"/>
<g style="mix-blend-mode:multiply" opacity="0.4">
<path d="M177.282 121.226C174.393 123.123 171.198 125.363 167.468 125.077C163.739 124.791 160.296 120.711 158.084 117.889C163.053 123.628 170.635 124.772 177.282 121.235V121.226Z" fill="#DF0198"/>
</g>
<path d="M185.408 113.009C181.612 119.129 174.831 124.514 167.297 123.313C159.505 122.065 154.822 115.239 153.258 108.004C158.437 110.254 163.329 113.085 168.222 115.887C173.887 114.696 179.657 113.533 185.418 113.009H185.408Z" fill="#F26665"/>
<path d="M152.314 106.708C152.886 108.252 153.725 109.701 154.755 111.007C157.979 115.096 163.11 117.908 167.945 118.681C172.075 119.338 176.662 118.824 180.554 117.031C182.995 115.907 185.16 114.277 186.782 112.113C181.927 113.266 175.413 113.114 170.32 112.399C169.881 112.332 169.443 112.265 169.023 112.198C167.526 111.979 165.942 111.674 164.331 111.283C160.125 110.273 155.738 108.7 152.304 106.717L152.314 106.708Z" fill="#731C55"/>
<g style="mix-blend-mode:multiply" opacity="0.4">
<path d="M186.782 112.103C181.927 113.257 175.413 113.104 170.32 112.389C176.252 113.695 181.412 115.478 180.554 117.022C182.995 115.897 185.16 114.267 186.782 112.103Z" fill="#DF0198"/>
</g>
<g style="mix-blend-mode:multiply" opacity="0.6">
<path d="M152.314 106.708C152.886 108.252 153.725 109.701 154.755 111.007C154.984 110.254 159.295 110.502 164.331 111.274C160.125 110.263 155.738 108.691 152.304 106.708H152.314Z" fill="#DF0198"/>
</g>
<path d="M176.558 118.442C174.497 117.317 170.826 116.364 168.403 116.459C165.561 115.459 160.211 115.859 160.211 115.859C162.776 117.317 165.389 118.433 168.394 118.804C170.959 119.119 173.935 118.843 176.548 118.442H176.558Z" fill="#BE2741"/>
<path d="M185.599 112.322C180.268 113.285 174.421 113.19 169.033 112.179C163.634 111.493 158.189 109.844 153.325 107.251C159.181 107.785 170.845 109.043 185.599 112.322Z" fill="#D74058"/>
<path d="M182.433 112.789C178.389 114.982 173.477 115.926 168.909 115.201C164.34 114.477 159.915 112.141 156.653 108.872C160.592 110.607 164.769 111.512 169.061 112.189C173.353 112.866 178.045 113.209 182.433 112.789Z" fill="#FBDBE9"/>
<path d="M154.221 105.888C152.819 106.574 151.541 107.394 150.673 108.681C150.95 107.632 151.474 106.012 152.314 105.421C153.162 104.83 153.649 105.44 154.221 105.888Z" fill="#D86B7C"/>
<path d="M184.95 110.683C186.076 111.76 187.039 112.932 187.478 114.42C187.535 113.342 187.535 111.655 186.915 110.835C186.295 110.016 185.637 110.435 184.95 110.683Z" fill="#D86B7C"/>
<g style="mix-blend-mode:soft-light">
<path d="M162.671 117.908C161.908 118.29 161.345 118.89 160.859 119.586C160.611 119.405 160.354 119.233 160.106 119.052C160.191 118.309 161.04 117.746 161.565 117.346C161.937 117.537 162.299 117.727 162.671 117.908Z" fill="#FBDBE9"/>
</g>
<g style="mix-blend-mode:soft-light">
<path d="M161.117 117.279C160.42 117.556 160.029 118.099 159.772 118.785C159.705 118.69 159.638 118.585 159.572 118.49C159.858 117.832 160.306 117.413 161.012 117.27C161.05 117.27 161.078 117.279 161.117 117.289V117.279Z" fill="#FBDBE9"/>
</g>
<path d="M176.567 118.433C171.131 119.214 165.246 117.813 160.23 115.849C164.731 119.233 171.293 119.5 176.567 118.433Z" fill="#FBDBE9"/>
<g style="mix-blend-mode:soft-light" opacity="0.5">
<path d="M171.226 117.565C168.994 118.032 163.921 115.668 168.403 116.469C170.292 116.803 174.173 116.955 171.226 117.565Z" fill="#F7A9B0"/>
</g>
<g style="mix-blend-mode:multiply">
<path d="M232.235 33.7964C232.235 33.7964 234.751 8.96008 251.487 10.6311C268.222 12.3021 267.484 44.0772 267.484 44.0772L264.805 41.6573C264.805 41.6573 268.112 24.5801 259.086 21.273C250.058 17.9759 241.724 22.8733 241.724 22.8733C241.724 22.8733 266.382 16.4613 273.186 31.2698C279.999 46.0798 269.69 71.7714 253.582 66.696C237.475 61.6106 232.225 33.7948 232.225 33.7948L232.235 33.7964Z" fill="#010101"/>
</g>
<path style="mix-blend-mode:multiply" d="M274.906 47.095C274.906 47.095 257.887 23.2082 235.979 35.7662L234.402 34.8985C234.402 34.8985 255.33 20.4593 275.306 41.107L274.904 47.105L274.906 47.095Z" fill="url(#paint33_linear_7_4131)"/>
<path d="M273.808 32.7471C273.808 32.7471 252.895 16.7869 234.275 29.2785L236.312 26.0306C236.312 26.0306 245.472 16.6346 273.196 31.2708L273.808 32.7471Z" fill="#010101"/>
<path style="mix-blend-mode:multiply" d="M264.768 65.1566C264.768 65.1566 268.712 37.2345 238.535 37.3182L239.501 38.0302C239.501 38.0302 267.591 39.6617 262.351 66.4215L264.758 65.1551L264.768 65.1566Z" fill="url(#paint34_linear_7_4131)"/>
<path d="M230 32.091C230 32.091 244.214 40.3547 247.737 63.4202C247.737 63.4202 258.338 41.4182 230 32.091Z" fill="#069383"/>
<defs>
<linearGradient id="paint0_linear_7_4131" x1="175.585" y1="139.646" x2="184.677" y2="81.4887" gradientUnits="userSpaceOnUse">
<stop stop-color="#31111B"/>
<stop offset="1" stop-color="#1A0F21"/>
</linearGradient>
<linearGradient id="paint1_linear_7_4131" x1="122.749" y1="107.608" x2="127.739" y2="75.6899" gradientUnits="userSpaceOnUse">
<stop stop-color="#F7A393"/>
<stop offset="0.43" stop-color="#F5A794"/>
<stop offset="0.51" stop-color="#F5A18E"/>
<stop offset="0.76" stop-color="#F59584"/>
<stop offset="1" stop-color="#F69181"/>
</linearGradient>
<linearGradient id="paint2_linear_7_4131" x1="124.041" y1="99.3004" x2="127.477" y2="77.3277" gradientUnits="userSpaceOnUse">
<stop stop-color="#F7A393"/>
<stop offset="0.43" stop-color="#F5A794"/>
<stop offset="0.51" stop-color="#F5A18E"/>
<stop offset="0.76" stop-color="#F59584"/>
<stop offset="1" stop-color="#F69181"/>
</linearGradient>
<linearGradient id="paint3_linear_7_4131" x1="128.011" y1="91.6523" x2="129.502" y2="82.1117" gradientUnits="userSpaceOnUse">
<stop stop-color="#F7A393"/>
<stop offset="0.43" stop-color="#F5A794"/>
<stop offset="0.51" stop-color="#F5A18E"/>
<stop offset="0.76" stop-color="#F59584"/>
<stop offset="1" stop-color="#F69181"/>
</linearGradient>
<linearGradient id="paint4_linear_7_4131" x1="135.286" y1="93.6041" x2="124.846" y2="91.9703" gradientUnits="userSpaceOnUse">
<stop stop-color="#F7A393"/>
<stop offset="0.43" stop-color="#F5A794"/>
<stop offset="0.51" stop-color="#F5A18E"/>
<stop offset="0.76" stop-color="#F59584"/>
<stop offset="1" stop-color="#F69181"/>
</linearGradient>
<linearGradient id="paint5_linear_7_4131" x1="363.408" y1="492.481" x2="218.556" y2="469.812" gradientUnits="userSpaceOnUse">
<stop stop-color="#F7A393"/>
<stop offset="0.43" stop-color="#F5A794"/>
<stop offset="0.51" stop-color="#F5A18E"/>
<stop offset="0.76" stop-color="#F59584"/>
<stop offset="1" stop-color="#F69181"/>
</linearGradient>
<linearGradient id="paint6_linear_7_4131" x1="122.601" y1="154.123" x2="15.834" y2="137.414" gradientUnits="userSpaceOnUse">
<stop stop-color="#F7A393"/>
<stop offset="0.43" stop-color="#F5A794"/>
<stop offset="0.51" stop-color="#F5A18E"/>
<stop offset="0.76" stop-color="#F59584"/>
<stop offset="1" stop-color="#F69181"/>
</linearGradient>
<linearGradient id="paint7_linear_7_4131" x1="58.0124" y1="106.059" x2="17.8913" y2="99.7803" gradientUnits="userSpaceOnUse">
<stop stop-color="#F7A393"/>
<stop offset="0.43" stop-color="#F5A794"/>
<stop offset="0.51" stop-color="#F5A18E"/>
<stop offset="0.76" stop-color="#F59584"/>
<stop offset="1" stop-color="#F69181"/>
</linearGradient>
<linearGradient id="paint8_linear_7_4131" x1="95.0864" y1="600.212" x2="33.7519" y2="611.441" gradientUnits="userSpaceOnUse">
<stop stop-color="#F7A393"/>
<stop offset="0.43" stop-color="#F5A794"/>
<stop offset="0.51" stop-color="#F5A18E"/>
<stop offset="0.76" stop-color="#F59584"/>
<stop offset="1" stop-color="#F69181"/>
</linearGradient>
<linearGradient id="paint9_linear_7_4131" x1="214.416" y1="159.408" x2="126.938" y2="145.718" gradientUnits="userSpaceOnUse">
<stop stop-color="#F9AD99"/>
<stop offset="0.18" stop-color="#F79B8D"/>
<stop offset="0.46" stop-color="#F48781"/>
<stop offset="0.73" stop-color="#F37B79"/>
<stop offset="1" stop-color="#F37777"/>
</linearGradient>
<linearGradient id="paint10_linear_7_4131" x1="231.129" y1="89.5614" x2="135.293" y2="74.5633" gradientUnits="userSpaceOnUse">
<stop stop-color="#F7A393"/>
<stop offset="0.43" stop-color="#F5A794"/>
<stop offset="0.51" stop-color="#F5A18E"/>
<stop offset="0.76" stop-color="#F59584"/>
<stop offset="1" stop-color="#F69181"/>
</linearGradient>
<linearGradient id="paint11_linear_7_4131" x1="403.696" y1="299.936" x2="206.096" y2="269.013" gradientUnits="userSpaceOnUse">
<stop stop-color="#F7A393"/>
<stop offset="0.43" stop-color="#F5A794"/>
<stop offset="0.51" stop-color="#F5A18E"/>
<stop offset="0.76" stop-color="#F59584"/>
<stop offset="1" stop-color="#F69181"/>
</linearGradient>
<linearGradient id="paint12_linear_7_4131" x1="224.52" y1="131.829" x2="230.93" y2="90.8224" gradientUnits="userSpaceOnUse">
<stop stop-color="#F7A393"/>
<stop offset="0.43" stop-color="#F5A794"/>
<stop offset="0.51" stop-color="#F5A18E"/>
<stop offset="0.76" stop-color="#F59584"/>
<stop offset="1" stop-color="#F69181"/>
</linearGradient>
<linearGradient id="paint13_linear_7_4131" x1="226.199" y1="121.16" x2="230.612" y2="92.9338" gradientUnits="userSpaceOnUse">
<stop stop-color="#F7A393"/>
<stop offset="0.43" stop-color="#F5A794"/>
<stop offset="0.51" stop-color="#F5A18E"/>
<stop offset="0.76" stop-color="#F59584"/>
<stop offset="1" stop-color="#F69181"/>
</linearGradient>
<linearGradient id="paint14_linear_7_4131" x1="223.299" y1="110.084" x2="225.216" y2="97.8213" gradientUnits="userSpaceOnUse">
<stop stop-color="#F7A393"/>
<stop offset="0.43" stop-color="#F5A794"/>
<stop offset="0.51" stop-color="#F5A18E"/>
<stop offset="0.76" stop-color="#F59584"/>
<stop offset="1" stop-color="#F69181"/>
</linearGradient>
<linearGradient id="paint15_linear_7_4131" x1="235.599" y1="112.818" x2="218.214" y2="110.097" gradientUnits="userSpaceOnUse">
<stop stop-color="#F7A393"/>
<stop offset="0.43" stop-color="#F5A794"/>
<stop offset="0.51" stop-color="#F5A18E"/>
<stop offset="0.76" stop-color="#F59584"/>
<stop offset="1" stop-color="#F69181"/>
</linearGradient>
<linearGradient id="paint16_linear_7_4131" x1="149.151" y1="87.7489" x2="150.948" y2="74.8232" gradientUnits="userSpaceOnUse">
<stop stop-color="#E8DCED"/>
<stop offset="1" stop-color="#BBC3E3"/>
</linearGradient>
<linearGradient id="paint17_linear_7_4131" x1="149.547" y1="87.1578" x2="152.173" y2="75.5935" gradientUnits="userSpaceOnUse">
<stop stop-color="#48204B"/>
<stop offset="1" stop-color="#301138"/>
</linearGradient>
<linearGradient id="paint18_linear_7_4131" x1="149.623" y1="86.8231" x2="152.095" y2="75.9375" gradientUnits="userSpaceOnUse">
<stop stop-color="#57345B"/>
<stop offset="1" stop-color="#301138"/>
</linearGradient>
<linearGradient id="paint19_linear_7_4131" x1="150.057" y1="84.9091" x2="151.662" y2="77.8441" gradientUnits="userSpaceOnUse">
<stop stop-color="#A295B8"/>
<stop offset="0.99" stop-color="#734B61"/>
</linearGradient>
<linearGradient id="paint20_linear_7_4131" x1="161.587" y1="80.01" x2="140.569" y2="75.2325" gradientUnits="userSpaceOnUse">
<stop stop-color="#F7A393"/>
<stop offset="0.43" stop-color="#F5A794"/>
<stop offset="0.51" stop-color="#F5A18E"/>
<stop offset="0.76" stop-color="#F59584"/>
<stop offset="1" stop-color="#F69181"/>
</linearGradient>
<linearGradient id="paint21_linear_7_4131" x1="195.804" y1="95.068" x2="198.04" y2="82.2108" gradientUnits="userSpaceOnUse">
<stop stop-color="#E8DCED"/>
<stop offset="1" stop-color="#BBC3E3"/>
</linearGradient>
<linearGradient id="paint22_linear_7_4131" x1="195.587" y1="94.4056" x2="196.618" y2="82.5921" gradientUnits="userSpaceOnUse">
<stop stop-color="#48204B"/>
<stop offset="1" stop-color="#301138"/>
</linearGradient>
<linearGradient id="paint23_linear_7_4131" x1="195.663" y1="94.0264" x2="196.631" y2="82.906" gradientUnits="userSpaceOnUse">
<stop stop-color="#57345B"/>
<stop offset="1" stop-color="#301138"/>
</linearGradient>
<linearGradient id="paint24_linear_7_4131" x1="195.803" y1="92.0875" x2="196.433" y2="84.8702" gradientUnits="userSpaceOnUse">
<stop stop-color="#A295B8"/>
<stop offset="0.99" stop-color="#734B61"/>
</linearGradient>
<linearGradient id="paint25_linear_7_4131" x1="186.322" y1="83.9018" x2="207.804" y2="85.7784" gradientUnits="userSpaceOnUse">
<stop stop-color="#F7A393"/>
<stop offset="0.43" stop-color="#F5A794"/>
<stop offset="0.51" stop-color="#F5A18E"/>
<stop offset="0.76" stop-color="#F59584"/>
<stop offset="1" stop-color="#F69181"/>
</linearGradient>
<linearGradient id="paint26_linear_7_4131" x1="169.329" y1="104.677" x2="171.334" y2="91.849" gradientUnits="userSpaceOnUse">
<stop stop-color="#F37A7F"/>
<stop offset="0.47" stop-color="#F4837F"/>
<stop offset="1" stop-color="#F58880"/>
</linearGradient>
<linearGradient id="paint27_linear_7_4131" x1="162.25" y1="99.3248" x2="163.355" y2="92.2611" gradientUnits="userSpaceOnUse">
<stop stop-color="#FCE4D6"/>
<stop offset="0.99" stop-color="#AE7DB7"/>
</linearGradient>
<linearGradient id="paint28_linear_7_4131" x1="177.504" y1="101.717" x2="178.608" y2="94.6539" gradientUnits="userSpaceOnUse">
<stop stop-color="#FCE4D6"/>
<stop offset="0.99" stop-color="#AE7DB7"/>
</linearGradient>
<linearGradient id="paint29_linear_7_4131" x1="195.726" y1="114.184" x2="201.859" y2="74.9568" gradientUnits="userSpaceOnUse">
<stop stop-color="#FCE4D6"/>
<stop offset="0.99" stop-color="#AE7DB7"/>
</linearGradient>
<linearGradient id="paint30_linear_7_4131" x1="144.637" y1="103.892" x2="150.237" y2="68.0748" gradientUnits="userSpaceOnUse">
<stop stop-color="#FCE4D6"/>
<stop offset="0.99" stop-color="#AE7DB7"/>
</linearGradient>
<linearGradient id="paint31_linear_7_4131" x1="172.847" y1="87.6859" x2="173.464" y2="83.7397" gradientUnits="userSpaceOnUse">
<stop stop-color="#FCE4D6"/>
<stop offset="0.99" stop-color="#AE7DB7"/>
</linearGradient>
<linearGradient id="paint32_linear_7_4131" x1="221.393" y1="94.1659" x2="222.572" y2="86.6219" gradientUnits="userSpaceOnUse">
<stop stop-color="#FCE4D6"/>
<stop offset="0.99" stop-color="#AE7DB7"/>
</linearGradient>
<linearGradient id="paint33_linear_7_4131" x1="275.946" y1="40.3458" x2="234.556" y2="33.9679" gradientUnits="userSpaceOnUse">
<stop stop-color="#827FBC"/>
<stop offset="1" stop-color="white"/>
</linearGradient>
<linearGradient id="paint34_linear_7_4131" x1="266.476" y1="54.0774" x2="236.661" y2="49.4832" gradientUnits="userSpaceOnUse">
<stop stop-color="#827FBC"/>
<stop offset="1" stop-color="white"/>
</linearGradient>
</defs>
</svg>
