<svg width="762" height="1021" viewBox="0 0 762 1021" fill="none" xmlns="http://www.w3.org/2000/svg">
<path d="M207.85 153.887C207.85 153.887 211.986 107.998 213.443 107.68C213.627 84.2664 257.514 53.3054 267.259 46.5609C320.087 10.0437 353.357 12.2862 407.692 65.991C450.574 108.366 436.107 183.308 434.584 188.48C445.853 194.521 435.337 210.336 423.281 207.96C423.281 207.96 426.798 218.035 415.78 222.235C404.762 226.436 401.229 222.754 401.229 222.754C401.229 222.754 408.764 233.8 392.991 237.247C392.991 237.247 399.957 241.297 389.19 245.029C378.424 248.761 369.365 232.829 369.365 232.829C369.365 232.829 370.671 245.096 360.34 247.908C350.009 250.719 338.07 238.502 338.07 238.502C338.07 238.502 327.303 252.092 317.575 250.586C307.847 249.063 301.752 238.251 301.752 238.251C301.752 238.251 302.907 246 293.262 244.644C284.522 243.423 285.342 230.218 285.577 227.741C285.292 230.252 283.517 243.707 277.958 242.251C267.075 239.406 269.653 230.57 267.694 233.247C265.735 235.908 256.023 233.448 247.886 227.842C240.468 222.737 244.152 213.951 244.152 213.951C244.152 213.951 236.834 216.261 231.928 207.926C231.928 207.926 231.426 220.194 222.083 214.604C213.895 209.7 223.188 195.492 223.188 195.492C223.188 195.492 216.373 200.178 208.235 195.057C201.705 190.956 211.35 183.994 211.35 183.994C211.35 183.994 199.26 186.706 195.677 181.216C192.094 175.727 207.85 153.87 207.85 153.87V153.887Z" fill="url(#paint0_linear_26_1198)"/>
<path d="M220.827 144.766C220.827 146.523 220.894 148.113 221.011 149.535V149.602C221.832 159.811 225.047 162.69 225.783 167.342C226.42 171.376 230.103 179.844 236.198 172.58L236.215 172.564C236.215 172.564 239.011 139.628 238.09 133.419C238.09 133.419 236.818 124.114 232.213 122.022C226.302 119.328 220.777 129.235 220.81 144.749L220.827 144.766Z" fill="url(#paint1_linear_26_1198)"/>
<path style="mix-blend-mode:multiply" opacity="0.6" d="M237.722 152.113C237.722 152.113 230.907 132.432 226.47 130.507C222.033 128.599 221.932 144.381 222.066 149.653C222.183 154.941 223.104 158.188 223.104 158.188C223.104 158.188 222.887 151.945 223.422 146.992C224.193 139.896 226.872 134.105 228.73 134.992C230.589 135.879 231.794 145.151 231.811 146.172C231.811 147.209 230.087 148.782 229.316 154.272C228.546 159.761 229.635 166.02 230.74 166.121C231.845 166.221 232.062 161.719 232.866 156.598C233.67 151.477 236.6 152.966 237.437 156.497L237.722 152.096V152.113Z" fill="url(#paint2_linear_26_1198)"/>
<path style="mix-blend-mode:multiply" opacity="0.6" d="M237.437 156.498C237.437 156.498 235.713 151.243 233.888 153.217C232.046 155.192 232.163 161.501 230.907 162.054C229.651 162.606 228.898 157.418 229.902 152.933C230.907 148.448 232.933 144.598 234.792 145.67L237.722 152.113L237.437 156.514V156.498Z" fill="url(#paint3_linear_26_1198)"/>
<path style="mix-blend-mode:multiply" d="M221.028 149.602C221.848 159.811 225.047 162.69 225.8 167.342C226.436 171.376 230.12 179.844 236.215 172.58C235.88 172.848 232.615 175.342 229.986 173.568C227.207 171.677 226.822 167.911 226.001 164.899C225.181 161.903 222.234 159.46 221.028 149.586V149.602Z" fill="url(#paint4_linear_26_1198)"/>
<path d="M389.023 241.314C398.684 243.439 410.338 242.251 415.093 234.168C415.177 234.185 427.852 237.147 436.425 216.612C443.86 198.789 439.289 189.802 439.289 189.802C439.289 189.802 446.505 183.81 447.611 179.141C450.105 168.614 446.941 150.807 439.439 150.506C431.921 150.205 426.479 155.811 426.479 155.811C426.479 155.811 421.506 143.678 415.478 144.766C409.451 145.854 394.247 166.505 394.247 166.505C394.247 166.505 385.674 159.209 382.141 163.644C378.608 168.079 374.137 179.308 374.137 179.308C374.137 179.308 364.191 184.513 365.748 196.462C365.748 196.462 361.73 204.596 369.566 211.324C371.257 212.78 373.517 214.169 376.464 215.39C376.464 215.39 371.826 223.34 374.388 232.293C375.493 236.159 381.672 239.691 389.006 241.314H389.023Z" fill="#010101"/>
<path d="M374.305 884.567L652.409 737.276L649.178 793.006L412.314 958.907C399.555 934.155 386.846 909.403 374.305 884.567Z" fill="url(#paint5_linear_26_1198)"/>
<path opacity="0.2" d="M374.304 884.567L568.42 781.759C577.228 797.876 585.717 814.762 595.429 830.661L412.314 958.923C399.555 934.171 386.846 909.419 374.304 884.583V884.567Z" fill="#201829"/>
<path d="M645.896 796.671L631.496 744.974L662.724 720.842L755.637 871.228C755.637 871.228 734.255 871.262 645.896 796.654V796.671Z" fill="#4296D2"/>
<path d="M755.637 871.228L662.724 720.842L673.122 712.792L762 865.488L755.637 871.228Z" fill="#2B2238"/>
<path d="M656.88 807.047C658.889 799.399 663.126 792.654 666.508 785.575C666.809 784.939 667.764 785.491 667.462 786.127C664.113 793.123 659.927 799.784 657.935 807.332C657.751 808.018 656.679 807.733 656.863 807.03L656.88 807.047Z" fill="#2B2238"/>
<path d="M665.202 815.063C667.211 807.415 671.447 800.671 674.83 793.592C675.131 792.956 676.086 793.508 675.784 794.144C672.435 801.139 668.249 807.8 666.257 815.348C666.072 816.034 665.001 815.75 665.185 815.047L665.202 815.063Z" fill="#2B2238"/>
<path d="M674.83 823.582C676.839 815.934 681.075 809.189 684.458 802.11C684.759 801.474 685.713 802.026 685.412 802.662C682.063 809.658 677.877 816.319 675.885 823.866C675.7 824.553 674.629 824.268 674.813 823.565L674.83 823.582Z" fill="#2B2238"/>
<path d="M213.912 259.84L84.9143 280.894L88.6482 140.666C74.1143 135.996 61.2715 142.925 47.1729 136.984C39.7217 168.196 12.8305 306.868 22.4081 336.942C37.4444 384.136 205.489 332.875 205.489 332.875L213.928 259.857L213.912 259.84Z" fill="url(#paint6_linear_26_1198)"/>
<path d="M46.6872 135.494C46.6872 135.494 40.5421 89.6887 46.0174 90.559C51.4928 91.4125 54.4398 112.901 54.4398 112.901C54.4398 112.901 52.263 77.5386 56.4826 77.4884C60.7021 77.4549 69.3421 111.73 69.3421 111.73C69.3421 111.73 68.8231 70.3088 72.2389 70.8444C75.6547 71.3799 82.6705 111.713 82.6705 111.713C82.6705 111.713 87.3756 81.6221 92.851 82.4756C98.3264 83.3292 91.9468 128.566 91.9468 128.566C91.9468 128.566 106.665 119.662 110.114 124.399C113.58 129.151 89.0501 147.025 89.0501 147.025L84.931 294.199L49.3328 172.33L46.6872 135.478V135.494Z" fill="url(#paint7_linear_26_1198)"/>
<path d="M108.557 734.899L206.762 1376.03L147.37 1376.85L29.5077 910.992L108.557 734.899Z" fill="url(#paint8_linear_26_1198)"/>
<path opacity="0.2" d="M110.885 1300.73L212.388 756.489L91.0929 707.168L55.796 1291.43C74.2816 1293.7 92.8007 1297.59 110.901 1300.72L110.885 1300.73Z" fill="#201829"/>
<path d="M161.167 402.094L148.258 566.555L353.91 571.392L311.229 459.949L161.167 402.094Z" fill="#069383"/>
<path d="M293.296 203.575L273.069 267.556L222.033 260.995L270.775 344.473L373.065 301.244L333.432 283.07L352.788 194.973L293.296 203.575Z" fill="url(#paint9_linear_26_1198)"/>
<path d="M340.732 48.9039C340.732 48.9039 266.137 39.967 240.116 124.666C214.079 209.349 274.09 240.695 316.252 240.076C358.414 239.456 392.556 199.274 402.1 174.338C411.661 149.402 407.877 60.3176 340.732 48.9206V48.9039Z" fill="url(#paint10_linear_26_1198)"/>
<path d="M156.981 467.714C156.981 467.714 214.347 502.458 324.909 500.784C324.909 500.784 408.111 604.612 405.164 719.586C403.105 800.286 367.423 993.181 367.423 993.181C367.423 993.181 265.132 1076.58 239.547 1003.06C213.962 929.536 189.448 638.167 189.448 638.167L246.412 707.302L178.565 1060.53L230.321 1269.37L65.6584 1263.5C65.6584 1263.5 12.3783 1151.7 4.72623 1039.15C-7.14542 864.484 72.1552 627.423 156.981 467.714Z" fill="#069383"/>
<path d="M307.11 995.742C291.873 956.195 274.727 912.616 266.17 868.718C403.104 816.988 537.862 766.563 537.862 766.563L587.492 906.072L304.983 1029.5C298.269 1014.94 312.887 1010.72 307.11 995.742Z" fill="#069383"/>
<path d="M571.585 930.824L488.098 779.584L547.657 755.869L611.118 913.319L571.585 930.824Z" fill="#069383"/>
<path d="M438.2 343.92L639.031 605.248C639.031 605.248 667.412 587.441 673.925 593.834C690.82 610.386 704.216 666.819 674.11 610.788C674.11 610.788 702.793 699.805 661.351 614.018C661.351 614.018 678.631 695.721 648.29 624.695C648.29 624.695 657.165 693.679 639.282 631.875C639.282 631.875 629.084 645.899 616.057 634.184C603.014 622.469 384.719 412.955 376.716 386.463C368.712 359.97 438.217 343.92 438.217 343.92H438.2Z" fill="url(#paint11_linear_26_1198)"/>
<path opacity="0.2" d="M206.795 665.697C163.461 632.829 131.815 596.261 109.126 563.275C54.8585 695.253 17.184 843.347 0.138382 978.655C-3.49512 1122.85 65.6585 1263.5 65.6585 1263.5L230.321 1269.37L177.175 1060.26L216.507 859.011L217.562 852.233C215.569 708.591 206.795 665.731 206.795 665.731V665.697Z" fill="#201829"/>
<path opacity="0.2" d="M319.685 482.023L311.229 459.932L161.167 402.094L155.943 468.568C200.382 479.279 264.245 490.107 319.685 482.023Z" fill="#201829"/>
<path d="M205.288 260.861L137.86 268.309L143.502 365.275L205.288 260.861Z" fill="#F2D7C3"/>
<path d="M254.181 264.978C254.181 264.978 229.316 255.439 207.951 259.623C186.585 263.807 145.277 323.219 133.606 349.627C121.936 376.036 113.48 417.993 113.48 417.993C113.48 417.993 268.715 496.851 336.111 475.396L380.299 397.609L412.464 432.754L483.192 377.944C483.192 377.944 444.312 313.512 398.952 302.667L357.543 290.55C357.543 290.55 253.227 319.403 254.215 264.978H254.181Z" fill="#F2D7C3"/>
<path d="M418.492 177.082C417.689 179.208 416.868 181.116 416.048 182.789L415.998 182.873C410.104 194.889 403.691 196.931 400.409 202.27C397.562 206.872 387.884 215.491 381.438 203.943C381.421 203.926 381.404 203.91 381.404 203.91C381.404 203.91 391.785 162.656 396.055 155.544C396.055 155.544 402.284 144.833 410.556 144.347C421.188 143.728 425.542 158.255 418.492 177.082Z" fill="url(#paint12_linear_26_1198)"/>
<path style="mix-blend-mode:multiply" opacity="0.6" d="M388.252 178.388C388.252 178.388 407.994 157.552 415.931 157.234C423.867 156.916 416.918 176.112 414.34 182.471C411.761 188.831 408.831 192.362 408.831 192.362C408.831 192.362 411.996 184.881 413.352 178.639C415.311 169.668 413.653 161.435 410.305 161.669C406.956 161.903 400.827 172.614 400.358 173.869C399.873 175.124 401.932 177.819 400.693 184.831C399.454 191.843 394.9 198.956 393.075 198.571C391.266 198.186 392.941 192.63 393.962 186.053C394.984 179.476 389.659 179.961 386.712 183.86L388.252 178.388Z" fill="url(#paint13_linear_26_1198)"/>
<path style="mix-blend-mode:multiply" opacity="0.6" d="M386.712 183.86C386.712 183.86 391.819 178.254 393.862 181.484C395.905 184.714 392.874 192.312 394.632 193.55C396.39 194.789 399.923 188.814 400.342 182.923C400.76 177.015 399.27 171.443 395.821 171.894L388.236 178.388L386.695 183.86H386.712Z" fill="url(#paint14_linear_26_1198)"/>
<path style="mix-blend-mode:multiply" d="M415.998 182.873C410.104 194.889 403.691 196.931 400.409 202.27C397.562 206.872 387.884 215.491 381.438 203.943C381.856 204.412 385.925 208.93 390.915 207.943C396.189 206.905 398.5 202.504 401.179 199.224C403.841 195.943 409.635 194.32 415.998 182.873Z" fill="url(#paint15_linear_26_1198)"/>
<path d="M437.497 137.821C433.998 145.268 430.414 134.959 430.414 134.959C426.178 146.557 417.337 146.071 417.337 146.071C417.337 146.071 424.906 151.51 422.93 159.661C420.971 167.811 406.035 163.711 406.035 163.711C406.035 163.711 406.554 179.242 398.985 179.626C391.4 180.011 393.56 173.719 393.56 173.719C384.117 175.325 390.178 166.773 390.178 166.773C387.767 163.225 397.529 155.644 397.529 155.644C393.108 154.038 395.955 145.218 395.955 145.218C393.544 149.017 386.645 144.749 386.645 144.749C386.645 144.749 383.229 150.071 378.139 148.214C373.032 146.339 379.83 126.993 379.83 126.993C375.225 124.148 384.92 104.182 384.92 104.182C384.92 104.182 380.651 105.989 378.758 103.596C376.9 101.253 381.22 93.9397 381.387 93.6552C381.253 93.8226 378.993 96.3832 371.324 94.241C363.555 92.0653 365.832 79.4634 365.949 79.3295C358.398 80.8692 352.018 74.2084 352.018 74.2084C352.018 74.2084 348.234 80.5345 345.153 79.5973C342.072 78.6601 334.185 65.9075 334.185 65.9075C327.471 67.1627 321.426 63.6816 321.426 63.6816C322.063 64.2339 313.875 76.0995 308.784 73.5892C303.895 71.1792 303.242 68.8027 303.192 68.6354C303.158 68.8697 302.489 74.0076 296.812 82.7268C291.002 91.6637 284.422 86.2748 284.422 86.2748C284.422 86.2748 284.388 97.0693 282.312 101.052C280.236 105.035 276.954 108.065 276.954 108.065C276.954 108.065 274.358 117.487 270.775 115.445C267.192 113.42 267.929 109.956 267.878 108.885C267.828 107.814 265.517 111.763 259.69 112.918C253.863 114.073 256.208 107.127 256.208 107.127C253.294 110.608 248.673 108.617 248.673 108.617C248.673 108.617 247.869 120.098 244.436 123.478C236.617 131.193 233.955 115.278 233.955 115.278C228.496 112.784 232.247 105.722 232.247 105.722C232.247 105.722 230.539 107.261 227.475 103.797C224.427 100.316 226.085 87.8312 230.321 83.2791C234.256 79.0617 234.641 83.3795 234.675 84.0322C234.675 84.0824 234.675 84.1159 234.675 84.1159C234.675 84.1159 225.834 77.1037 226.688 72.6185C227.541 68.1501 233.034 60.6859 233.034 60.6859C233.034 60.6859 228.529 55.4477 228.714 50.2764C228.898 45.1218 232.046 33.3231 236.851 33.9089C241.506 34.4946 241.824 38.2769 241.808 38.6618C241.808 38.6618 244.436 30.6789 246.831 28.3526C248.388 26.8464 253.729 24.7544 255.689 24.8381C260.427 25.0557 263.341 28.0012 263.341 28.0012C268.18 25.5745 273.186 20.1187 273.186 20.1187C273.186 20.1187 269.871 17.2736 272.818 13.4746C279.231 5.17369 297.951 1.67593 307.277 0.303608C319.953 -1.57079 325.997 5.84312 325.88 5.9268C338.422 5.17369 347.531 8.45389 347.531 8.45389C347.531 8.45389 347.564 6.79705 352.638 6.19457C357.493 5.62555 360.491 7.95181 363.488 12.4872L363.538 12.5709C363.538 12.5709 367.372 9.84295 372.563 13.6085C378.742 18.0769 382.61 30.796 379.495 47.1133C381.505 47.7158 382.593 48.1677 385.004 49.4898C410.773 40.0174 409.836 59.4977 409.836 59.4977C409.836 59.4977 413.955 58.8618 420.971 61.4056C427.786 63.8657 427.585 65.1878 426.999 67.6313C426.396 70.1416 421.255 70.0914 421.255 70.0914C435.806 78.1245 433.479 77.5053 433.479 77.5053C438.686 81.9403 438.468 85.9568 438.033 87.6973C437.882 88.2831 437.715 88.6178 437.715 88.6178C437.715 88.6178 446.439 95.1447 445.484 99.9479C444.53 104.751 438.569 102.224 438.569 102.224C439.239 106.291 437.882 110.826 436.643 113.872C435.773 115.997 434.969 117.403 434.969 117.403C434.969 117.403 440.997 130.39 437.497 137.837V137.821Z" fill="#010101"/>
<g style="mix-blend-mode:multiply">
<path d="M437.497 137.82C433.998 145.268 430.414 134.959 430.414 134.959C426.178 146.557 417.337 146.071 417.337 146.071C417.337 146.071 424.906 151.51 422.93 159.661C420.971 167.811 406.035 163.711 406.035 163.711C406.035 163.711 406.554 179.241 398.986 179.626C391.4 180.011 393.56 173.719 393.56 173.719C384.117 175.325 390.178 166.773 390.178 166.773C387.767 163.225 397.529 155.644 397.529 155.644C393.108 154.037 395.955 145.218 395.955 145.218C393.544 149.017 386.645 144.749 386.645 144.749C386.645 144.749 383.229 150.071 378.139 148.213C373.032 146.339 379.83 126.992 379.83 126.992C375.225 124.147 384.92 104.182 384.92 104.182C384.92 104.182 380.651 105.989 378.759 103.596C376.866 101.203 381.387 93.6383 381.387 93.6383C381.387 93.6383 379.227 96.4499 371.324 94.2408C363.555 92.0651 365.832 79.4631 365.949 79.3293C358.398 80.8689 352.018 74.2081 352.018 74.2081C352.018 74.2081 348.234 80.5342 345.153 79.597C342.072 78.6598 334.185 65.9072 334.185 65.9072C327.471 67.1624 321.426 63.6814 321.426 63.6814C322.063 64.2337 313.875 76.0993 308.784 73.5889C303.895 71.179 303.242 68.8025 303.192 68.6352C303.158 68.8695 302.489 74.0073 296.812 82.7266C291.002 91.6635 284.422 86.2746 284.422 86.2746C284.422 86.2746 284.388 97.0691 282.312 101.052C280.236 105.035 276.954 108.064 276.954 108.064C276.954 108.064 274.358 117.487 270.775 115.445C267.192 113.42 267.929 109.956 267.878 108.884C267.828 107.813 265.517 111.763 259.69 112.918C253.863 114.073 256.208 107.127 256.208 107.127C253.294 110.608 248.673 108.617 248.673 108.617C248.673 108.617 247.869 120.097 244.436 123.478C236.617 131.193 233.955 115.278 233.955 115.278C228.496 112.784 232.247 105.721 232.247 105.721C232.247 105.721 230.539 107.261 227.475 103.797C224.427 100.316 226.085 87.831 230.321 83.2789C234.557 78.7268 234.675 84.1157 234.675 84.1157C234.675 84.1157 225.834 77.1034 226.688 72.6183C227.542 68.1498 233.034 60.6857 233.034 60.6857C233.034 60.6857 228.529 55.4474 228.714 50.2761C228.898 45.1215 232.046 33.3229 236.851 33.9086C241.506 34.4944 241.824 38.2766 241.808 38.6615C242.779 44.9207 275.53 45.7407 275.53 45.7407C275.53 45.7407 269.151 51.5313 280.152 52.9203C293.949 54.6609 306.105 43.3308 306.105 43.3308C306.105 43.3308 319.082 50.6276 329.179 50.3096C358.799 49.3556 376.783 43.5818 380.567 37.3562L379.495 47.1131L385.004 49.4895C385.004 49.4895 377.084 51.8995 375.945 61.7066C375.443 65.9909 390.932 71.3463 393.209 67.1624C393.209 67.1624 391.652 76.5009 401.782 76.8691C401.782 76.8691 393.745 78.9945 395.871 88.1322C397.981 97.2699 434.45 100.282 437.732 88.6343C437.732 88.6343 446.455 95.1612 445.501 99.9644C444.547 104.768 438.586 102.24 438.586 102.24C439.724 109.136 434.986 117.42 434.986 117.42C434.986 117.42 441.014 130.407 437.514 137.854L437.497 137.82Z" fill="#010101"/>
</g>
<g style="mix-blend-mode:multiply">
<path d="M437.497 137.821C433.998 145.268 430.414 134.959 430.414 134.959C426.178 146.557 417.337 146.071 417.337 146.071C417.337 146.071 424.905 151.51 422.93 159.661C420.971 167.811 406.035 163.711 406.035 163.711C406.035 163.711 406.554 179.241 398.985 179.626C391.4 180.011 393.56 173.719 393.56 173.719C384.117 175.325 390.178 166.773 390.178 166.773C387.767 163.225 397.529 155.644 397.529 155.644C393.108 154.037 395.955 145.218 395.955 145.218C393.544 149.017 386.645 144.749 386.645 144.749C386.645 144.749 383.229 150.071 378.139 148.213C373.032 146.339 379.83 126.993 379.83 126.993C375.225 124.147 384.92 104.182 384.92 104.182C384.92 104.182 380.651 105.989 378.758 103.596C376.9 101.253 381.22 93.9396 381.387 93.6551C381.253 93.8224 378.993 96.383 371.324 94.2408C363.555 92.0652 365.832 79.4632 365.949 79.3293C358.397 80.869 352.018 74.2082 352.018 74.2082C352.018 74.2082 348.234 80.5343 345.153 79.5971C342.072 78.6599 334.185 65.9073 334.185 65.9073C327.471 67.1625 321.426 63.6815 321.426 63.6815C322.063 64.2337 313.875 76.0993 308.784 73.589C303.895 71.179 303.242 68.8026 303.192 68.6352C303.158 68.8695 302.489 74.0074 296.812 82.7267C291.002 91.6635 284.422 86.2746 284.422 86.2746C284.422 86.2746 284.388 97.0691 282.312 101.052C280.235 105.035 276.954 108.064 276.954 108.064C276.954 108.064 274.358 117.487 270.775 115.445C267.192 113.42 267.928 109.956 267.878 108.885C267.828 107.813 265.517 111.763 259.69 112.918C253.863 114.073 256.208 107.127 256.208 107.127C253.294 110.608 248.673 108.617 248.673 108.617C248.673 108.617 247.869 120.097 244.436 123.478C236.617 131.193 233.955 115.278 233.955 115.278C228.496 112.784 232.247 105.721 232.247 105.721C232.247 105.721 230.539 107.261 227.474 103.797C224.427 100.316 226.085 87.8311 230.321 83.2789C234.256 79.0616 234.641 83.3794 234.675 84.0321C234.675 84.0823 234.675 84.1157 234.675 84.1157C233.218 92.4166 241.121 86.0571 241.121 86.0571C241.121 86.0571 241.054 91.1782 246.546 89.6552C246.228 89.7557 242.193 91.1614 246.446 93.1363C250.866 95.1947 255.722 87.7474 255.722 87.7474C255.722 87.7474 257.346 92.2493 262.822 92.6342C262.822 92.6342 256.961 95.0609 263.424 97.0022C269.888 98.9435 268.23 85.8897 268.23 85.8897C268.23 85.8897 271.83 89.7054 276.15 85.7391C280.487 81.7727 280.085 72.7187 280.085 72.7187C280.085 72.7187 281.675 79.0281 288.859 78.1076C296.042 77.1872 301.417 64.6019 301.417 64.6019C301.417 64.6019 303.962 67.6311 307.21 68.6687C310.442 69.6896 313.573 59.3469 313.573 59.3469C313.573 59.3469 313.707 63.2129 321.443 60.4515C321.443 60.4515 320.472 63.0622 325.78 63.397C331.088 63.7317 338.003 57.506 338.003 57.506C338.003 57.506 337.149 67.7315 341.218 69.6896C345.287 71.6476 346.727 57.2215 346.727 57.2215C346.727 57.2215 351.181 64.5183 356.07 62.5267C360.959 60.5352 362.5 56.0835 362.5 56.0835C362.5 56.0835 359.971 63.2296 365.648 64.1835C371.09 65.0873 373.819 61.3719 374.053 61.054C373.718 61.623 367.473 72.6183 375.51 76.2165C374.539 75.7981 367.004 72.702 368.444 77.7394C369.984 83.1283 378.758 79.3963 378.758 79.3963C378.758 79.3963 375.343 83.2789 379.06 86.4085C382.476 89.2871 384.569 87.0277 384.904 86.6261C384.418 87.3122 379.864 94.04 387.465 98.0566C387.08 97.8892 382.074 95.8642 383.229 99.1611C384.435 102.592 390.831 103.613 390.831 103.613C390.831 103.613 385.389 107.429 387.8 110.525C388.755 111.746 390.329 111.947 391.903 111.73C387.214 113.688 381.17 117.453 384.033 123.244C387.331 129.888 393.627 126.223 396.708 123.846C394.682 125.838 392.003 129.436 394.9 132.532C399.17 137.101 406.537 126.942 406.537 126.942C406.537 126.942 405.951 132.599 412.632 132.063C412.632 132.063 405.147 137.084 409.518 139.862C413.905 142.64 426.898 140.933 423.867 134.356C423.867 134.356 429.209 130.875 426.245 126.507C426.245 126.507 434.651 126.742 434.919 117.403C434.919 117.403 440.946 130.39 437.447 137.837L437.497 137.821Z" fill="#010101"/>
</g>
<g style="mix-blend-mode:soft-light" opacity="0.5">
<path d="M328.409 35.4316C328.409 35.4316 333.047 38.3771 328.074 39.2976C323.101 40.218 315.331 36.0006 315.331 36.0006C300.412 36.7035 296.126 33.2058 298.939 27.5324C298.939 27.5324 290.299 15.0643 304.716 15.7505C308.366 15.9178 306.323 18.9135 306.256 18.9637C313.825 18.5118 312.435 22.0598 312.435 22.0598C312.435 22.0598 322.515 17.3069 325.596 17.2399C357.025 16.5036 344.818 25.4237 344.818 25.4237C374.623 39.1804 328.375 35.4484 328.375 35.4484L328.409 35.4316Z" fill="#010101"/>
</g>
<path d="M280.637 156.38C282.814 156.247 277.891 138.055 265.785 132.448C251.151 125.687 244.604 138.791 244.051 141.636C243.482 144.481 270.189 156.966 280.654 156.364L280.637 156.38Z" fill="url(#paint16_linear_26_1198)"/>
<path d="M263.246 153.226C257.663 152.353 253.859 147.041 254.748 141.361C255.636 135.681 260.882 131.784 266.465 132.657C272.047 133.53 275.852 138.842 274.963 144.522C274.074 150.202 268.828 154.099 263.246 153.226Z" fill="url(#paint17_linear_26_1198)"/>
<path d="M263.339 152.631C258.086 151.809 254.506 146.806 255.343 141.454C256.181 136.103 261.118 132.431 266.372 133.252C271.625 134.073 275.205 139.077 274.368 144.429C273.53 149.78 268.593 153.452 263.339 152.631Z" fill="url(#paint18_linear_26_1198)"/>
<path style="mix-blend-mode:multiply" d="M258.753 141.519C257.983 144.95 260.076 148.347 263.441 149.117C266.807 149.887 270.156 147.728 270.943 144.314C271.729 140.9 269.62 137.486 266.254 136.716C262.889 135.946 259.54 138.105 258.753 141.519Z" fill="url(#paint19_linear_26_1198)"/>
<path d="M280.855 152.966C280.855 152.966 279.7 128.767 266.17 123.545C252.624 118.324 245.29 138.641 245.29 138.641C245.29 138.641 251.084 128.398 264.178 132.13C277.289 135.863 280.855 152.966 280.855 152.966Z" fill="url(#paint20_linear_26_1198)"/>
<path d="M281.039 153.971L278.143 156.314C278.143 156.314 280.922 157.234 281.391 156.498C281.86 155.761 281.039 153.971 281.039 153.971Z" fill="#D86B7C"/>
<path d="M276.2 156.146C276.2 156.146 264.831 155.326 255.772 151.259C246.714 147.176 244.42 142.507 244.42 142.507C244.42 142.507 258.049 151.694 276.2 156.146Z" fill="#D86B7C"/>
<path d="M258.267 139.36C258.753 140.046 255.923 139.528 254.014 138.222C252.323 137.051 251.687 135.628 251.921 135.444C252.156 135.277 256.375 136.666 258.267 139.36Z" fill="white"/>
<path d="M259.741 140.264C260.595 140.164 261.432 140.8 261.365 141.235C261.298 141.67 260.193 141.988 259.791 141.703C259.372 141.419 259.272 140.314 259.741 140.264Z" fill="white"/>
<g style="mix-blend-mode:multiply" opacity="0.6">
<path d="M281.039 153.97C281.039 153.97 275.129 140.498 264.596 135.846C254.064 131.193 247.316 136.314 247.316 136.314C247.316 136.314 250.699 128.482 264.881 132.85C279.063 137.201 281.039 153.97 281.039 153.97Z" fill="#CC78B1"/>
</g>
<path d="M281.039 153.97C281.039 153.97 277.824 137.252 263.156 132.733C250.062 128.716 244.621 139.963 244.621 139.963C244.621 139.963 245.575 129.252 255.287 128.9C264.513 128.566 278.427 136.683 281.039 153.97Z" fill="#401432"/>
<path d="M325.177 163.343C323.151 162.556 333.398 146.741 346.626 145.101C362.617 143.126 364.844 157.619 364.526 160.497C364.191 163.376 334.956 167.125 325.177 163.343Z" fill="url(#paint21_linear_26_1198)"/>
<path d="M342.716 165.645C337.134 164.772 333.33 159.459 334.22 153.779C335.11 148.099 340.356 144.203 345.938 145.077C351.521 145.951 355.325 151.263 354.435 156.943C353.545 162.623 348.298 166.519 342.716 165.645Z" fill="url(#paint22_linear_26_1198)"/>
<path d="M342.826 165.06C337.573 164.238 333.993 159.235 334.83 153.883C335.668 148.532 340.606 144.86 345.859 145.681C351.113 146.502 354.692 151.506 353.855 156.858C353.018 162.209 348.08 165.881 342.826 165.06Z" fill="url(#paint23_linear_26_1198)"/>
<path style="mix-blend-mode:multiply" d="M350.561 155.878C350.26 159.376 347.212 161.97 343.78 161.669C340.347 161.368 337.802 158.305 338.12 154.807C338.422 151.31 341.469 148.715 344.902 149.017C348.334 149.318 350.879 152.381 350.561 155.878Z" fill="url(#paint24_linear_26_1198)"/>
<path d="M326.031 160.029C326.031 160.029 334.52 137.335 349.004 136.498C363.488 135.662 364.275 157.234 364.275 157.234C364.275 157.234 361.897 145.72 348.284 145.268C334.671 144.833 326.031 160.012 326.031 160.012V160.029Z" fill="url(#paint25_linear_26_1198)"/>
<path d="M325.545 160.933L327.588 164.045C327.588 164.045 324.658 164.079 324.44 163.225C324.206 162.389 325.545 160.933 325.545 160.933Z" fill="#D86B7C"/>
<path d="M329.48 164.481C329.48 164.481 340.565 167.175 350.427 166.054C360.29 164.932 363.923 161.2 363.923 161.2C363.923 161.2 348.133 165.803 329.497 164.481H329.48Z" fill="#D86B7C"/>
<path d="M351.683 153.971C351.013 154.473 353.86 154.857 356.07 154.188C358.046 153.586 359.084 152.414 358.917 152.18C358.749 151.945 354.312 151.979 351.683 153.971Z" fill="white"/>
<path d="M350.009 154.389C349.222 154.037 348.234 154.389 348.167 154.824C348.1 155.259 349.054 155.895 349.523 155.744C350.009 155.594 350.444 154.59 350.009 154.389Z" fill="white"/>
<g style="mix-blend-mode:multiply" opacity="0.6">
<path d="M325.545 160.933C325.545 160.933 335.291 149.92 346.744 148.699C358.197 147.477 363.052 154.422 363.052 154.422C363.052 154.422 362.232 145.937 347.397 145.753C332.561 145.569 325.562 160.933 325.562 160.933H325.545Z" fill="#CC78B1"/>
</g>
<path d="M325.545 160.933C325.545 160.933 333.717 145.988 349.054 146.172C362.751 146.339 364.492 158.707 364.492 158.707C364.492 158.707 366.853 148.213 357.728 144.917C349.038 141.77 333.315 145.268 325.545 160.933Z" fill="#401432"/>
<path d="M278.896 175.844C278.896 175.844 279.08 176.965 283.115 177.735C287.151 178.522 290.382 182.655 297.264 183.743C304.146 184.814 308.148 181.819 312.234 182.287C316.319 182.773 317.173 181.819 317.173 181.819C318.195 179.258 318.211 176.631 317.809 174.304C317.809 174.304 317.809 174.237 317.809 174.221C317.073 170.137 315.097 167.041 315.097 167.041C306.172 160.866 295.808 159.242 285.409 162.405C285.409 162.405 283.584 163.911 281.876 166.388V166.422C280.219 168.815 278.661 172.112 278.929 175.844H278.896Z" fill="url(#paint26_linear_26_1198)"/>
<path d="M287.72 179.794C287.72 179.794 285.024 176.631 280.972 177.183L287.72 179.794Z" fill="#812852"/>
<path d="M314.343 182.423C314.343 182.423 310.593 180.628 306.156 183.144L314.343 182.423Z" fill="#812852"/>
<g style="mix-blend-mode:multiply" opacity="0.6">
<path d="M278.896 175.844C278.896 175.844 279.08 176.965 283.116 177.735C287.151 178.522 290.383 182.655 297.264 183.743C304.146 184.814 308.148 181.819 312.234 182.287C316.319 182.773 317.173 181.819 317.173 181.819C318.195 179.258 318.211 176.631 317.81 174.304C317.86 174.974 318.061 179.292 316.286 180.061C314.36 180.881 304.481 178.689 298.219 177.702C291.956 176.714 281.307 175.074 280.369 173.233C279.465 171.459 281.659 166.84 281.877 166.422C280.219 168.815 278.662 172.112 278.93 175.844H278.896Z" fill="#CC78B1"/>
</g>
<path style="mix-blend-mode:multiply" opacity="0.6" d="M285.409 162.389C285.409 162.389 286.565 169.635 285.543 174.438C285.543 174.438 287.938 169.987 286.933 161.97L285.409 162.389Z" fill="url(#paint27_linear_26_1198)"/>
<path style="mix-blend-mode:multiply" opacity="0.6" d="M314.745 166.991C314.745 166.991 311.43 173.551 310.944 178.421C310.944 178.421 310.024 173.434 313.423 166.121L314.745 166.991Z" fill="url(#paint28_linear_26_1198)"/>
<g style="mix-blend-mode:multiply" opacity="0.6">
<path d="M316.286 180.061C316.286 180.061 317.073 181.266 317.19 181.835C317.307 182.404 306.859 189.567 296.628 187.961C286.397 186.354 278.946 176.915 278.913 175.844C278.896 174.773 280.771 173.702 280.771 173.702C280.771 173.702 288.574 176.195 298.219 177.702C307.88 179.208 316.286 180.061 316.286 180.061Z" fill="#CC78B1"/>
</g>
<path d="M290.416 174.07C291.99 173.468 289.813 170.673 289.11 170.673C288.407 170.673 287.787 172.145 288.005 173.2C288.223 174.254 289.746 174.321 290.416 174.07Z" fill="#FBCBBB"/>
<g style="mix-blend-mode:multiply">
<path d="M286.598 132.314C286.598 132.314 283.886 121.754 278.594 114.307L279.767 119.11C279.767 119.11 278.209 116.985 275.664 115.027C273.102 113.068 252.39 107.579 248.036 107.68L249.008 105.922C249.008 105.922 240.669 111.027 233.737 123.194C233.737 123.194 240.1 117.955 243.75 117.922C247.4 117.888 279.047 127.813 286.247 134.641L286.615 132.331L286.598 132.314Z" fill="#010101"/>
<path d="M325.746 138.44C325.746 138.44 331.557 129.218 338.874 123.729L336.295 127.946C336.295 127.946 338.422 126.39 341.452 125.302C344.483 124.214 365.899 125.302 370.001 126.741L369.616 124.783C369.616 124.783 375.996 132.197 378.876 145.904C378.876 145.904 374.422 138.975 370.956 137.821C367.49 136.666 334.336 136.465 325.378 140.766L325.746 138.456V138.44Z" fill="#010101"/>
</g>
<path style="mix-blend-mode:multiply" opacity="0.6" d="M317.056 150.021C317.056 150.021 310.509 181.501 316.972 191.04C323.436 200.596 354.898 203.123 371.625 195.508C388.353 187.894 380.952 145.82 380.952 145.82C380.952 145.82 373.601 132.616 349.891 131.093C326.182 129.57 317.056 150.004 317.056 150.004V150.021Z" fill="url(#paint29_linear_26_1198)"/>
<path style="mix-blend-mode:multiply" opacity="0.6" d="M291.37 146.306C291.37 146.306 287.787 174.522 279.515 181.032C271.227 187.526 243.181 180.965 230.756 169.685C218.332 158.405 236.516 123.896 236.516 123.896C236.516 123.896 246.596 114.474 267.627 119.763C288.658 125.051 291.387 146.322 291.387 146.322L291.37 146.306Z" fill="url(#paint30_linear_26_1198)"/>
<path d="M319.886 155.828C319.266 155.092 314.879 150.105 305.603 148.063C295.473 145.837 288.122 149 287.318 149.351" stroke="url(#paint31_linear_26_1198)" stroke-miterlimit="10"/>
<path d="M382.141 163.644L397.261 153.686" stroke="url(#paint32_linear_26_1198)" stroke-miterlimit="10"/>
<g style="mix-blend-mode:multiply" opacity="0.4">
<path d="M311.246 212.83C306.172 216.16 300.563 220.093 294.016 219.591C287.469 219.089 281.424 211.926 277.54 206.972C286.263 217.047 299.575 219.055 311.246 212.847V212.83Z" fill="#CC78B1"/>
</g>
<path d="M325.512 198.404C318.848 209.148 306.942 218.604 293.715 216.495C280.035 214.303 271.813 202.32 269.067 189.617C278.159 193.567 286.749 198.538 295.339 203.458C305.285 201.366 315.415 199.324 325.529 198.404H325.512Z" fill="#F26665"/>
<path d="M267.409 187.341C268.414 190.053 269.888 192.596 271.696 194.889C277.355 202.069 286.364 207.006 294.853 208.361C302.103 209.516 310.157 208.612 316.989 205.466C321.276 203.491 325.077 200.63 327.923 196.831C319.4 198.856 307.964 198.588 299.023 197.333C298.252 197.215 297.482 197.098 296.745 196.981C294.116 196.596 291.337 196.061 288.507 195.375C281.123 193.601 273.421 190.839 267.393 187.358L267.409 187.341Z" fill="#731C55"/>
<g style="mix-blend-mode:multiply" opacity="0.4">
<path d="M327.923 196.814C319.4 198.839 307.964 198.571 299.023 197.316C309.437 199.609 318.496 202.738 316.989 205.449C321.276 203.475 325.077 200.613 327.923 196.814Z" fill="#CC78B1"/>
</g>
<g style="mix-blend-mode:multiply" opacity="0.6">
<path d="M267.409 187.341C268.414 190.053 269.888 192.596 271.696 194.889C272.098 193.567 279.666 194.002 288.507 195.358C281.123 193.584 273.421 190.822 267.393 187.341H267.409Z" fill="#CC78B1"/>
</g>
<path d="M309.973 207.943C306.357 205.968 299.91 204.295 295.657 204.462C290.667 202.705 281.274 203.408 281.274 203.408C285.778 205.968 290.366 207.926 295.64 208.579C300.144 209.131 305.369 208.646 309.957 207.943H309.973Z" fill="#BE2741"/>
<path d="M325.847 197.199C316.487 198.889 306.223 198.722 296.762 196.948C287.285 195.743 277.724 192.847 269.184 188.295C279.465 189.233 299.943 191.442 325.847 197.199Z" fill="#D74058"/>
<path d="M320.288 198.019C313.188 201.868 304.565 203.525 296.544 202.253C288.524 200.981 280.755 196.881 275.028 191.14C281.943 194.186 289.277 195.776 296.812 196.964C304.347 198.153 312.585 198.755 320.288 198.019Z" fill="#FBDBE9"/>
<path d="M270.758 185.902C268.297 187.107 266.053 188.546 264.529 190.806C265.015 188.965 265.936 186.12 267.409 185.082C268.9 184.044 269.754 185.116 270.758 185.902Z" fill="#D86B7C"/>
<path d="M324.708 194.32C326.684 196.211 328.375 198.27 329.145 200.881C329.246 198.989 329.246 196.027 328.157 194.588C327.069 193.149 325.914 193.885 324.708 194.32Z" fill="#D86B7C"/>
<g style="mix-blend-mode:soft-light">
<path d="M285.594 207.006C284.254 207.675 283.266 208.73 282.412 209.951C281.977 209.633 281.525 209.332 281.089 209.014C281.24 207.709 282.73 206.721 283.651 206.018C284.304 206.353 284.941 206.688 285.594 207.006Z" fill="#FBDBE9"/>
</g>
<g style="mix-blend-mode:soft-light">
<path d="M282.864 205.901C281.642 206.387 280.956 207.341 280.503 208.546C280.386 208.378 280.269 208.194 280.152 208.027C280.654 206.872 281.441 206.136 282.68 205.885C282.747 205.885 282.797 205.901 282.864 205.918V205.901Z" fill="#FBDBE9"/>
</g>
<path d="M309.99 207.926C300.446 209.299 290.115 206.838 281.307 203.391C289.21 209.332 300.73 209.801 309.99 207.926Z" fill="#FBDBE9"/>
<g style="mix-blend-mode:soft-light" opacity="0.5">
<path d="M300.613 206.403C296.695 207.223 287.787 203.073 295.657 204.479C298.972 205.064 305.787 205.332 300.613 206.403Z" fill="#F7A9B0"/>
</g>
<g style="mix-blend-mode:multiply">
<path d="M407.724 59.3346C407.724 59.3346 412.141 15.7308 441.523 18.6645C470.904 21.5982 469.608 77.3841 469.608 77.3841L464.904 73.1356C464.904 73.1356 470.711 43.154 454.864 37.348C439.014 31.5595 424.382 40.1575 424.382 40.1575C424.382 40.1575 467.674 28.9002 479.619 54.8988C491.581 80.9001 473.481 126.005 445.201 117.095C416.924 108.167 407.707 59.3319 407.707 59.3319L407.724 59.3346Z" fill="#010101"/>
</g>
<path style="mix-blend-mode:multiply" d="M482.638 82.6823C482.638 82.6823 452.759 40.7454 414.297 62.7929L411.529 61.2695C411.529 61.2695 448.27 35.9193 483.341 72.1695L482.635 82.6998L482.638 82.6823Z" fill="url(#paint33_linear_26_1198)"/>
<path d="M480.712 57.4925C480.712 57.4925 443.995 29.472 411.305 51.4028L414.881 45.7006C414.881 45.7006 430.964 29.2046 479.637 54.9005L480.712 57.4925Z" fill="#010101"/>
<path style="mix-blend-mode:multiply" d="M464.841 114.392C464.841 114.392 471.765 65.3708 418.784 65.5176L420.48 66.7677C420.48 66.7677 469.796 69.632 460.596 116.613L464.823 114.39L464.841 114.392Z" fill="url(#paint34_linear_26_1198)"/>
<path d="M403.799 56.3406C403.799 56.3406 428.754 70.8488 434.94 111.344C434.94 111.344 453.552 72.7159 403.799 56.3406Z" fill="#069383"/>
<defs>
<linearGradient id="paint0_linear_26_1198" x1="308.265" y1="245.169" x2="324.228" y2="143.066" gradientUnits="userSpaceOnUse">
<stop stop-color="#31111B"/>
<stop offset="1" stop-color="#1A0F21"/>
</linearGradient>
<linearGradient id="paint1_linear_26_1198" x1="215.504" y1="188.922" x2="224.265" y2="132.885" gradientUnits="userSpaceOnUse">
<stop stop-color="#F7A393"/>
<stop offset="0.43" stop-color="#F5A794"/>
<stop offset="0.51" stop-color="#F5A18E"/>
<stop offset="0.76" stop-color="#F59584"/>
<stop offset="1" stop-color="#F69181"/>
</linearGradient>
<linearGradient id="paint2_linear_26_1198" x1="217.773" y1="174.337" x2="223.804" y2="135.76" gradientUnits="userSpaceOnUse">
<stop stop-color="#F7A393"/>
<stop offset="0.43" stop-color="#F5A794"/>
<stop offset="0.51" stop-color="#F5A18E"/>
<stop offset="0.76" stop-color="#F59584"/>
<stop offset="1" stop-color="#F69181"/>
</linearGradient>
<linearGradient id="paint3_linear_26_1198" x1="224.742" y1="160.909" x2="227.361" y2="144.159" gradientUnits="userSpaceOnUse">
<stop stop-color="#F7A393"/>
<stop offset="0.43" stop-color="#F5A794"/>
<stop offset="0.51" stop-color="#F5A18E"/>
<stop offset="0.76" stop-color="#F59584"/>
<stop offset="1" stop-color="#F69181"/>
</linearGradient>
<linearGradient id="paint4_linear_26_1198" x1="237.515" y1="164.336" x2="219.186" y2="161.468" gradientUnits="userSpaceOnUse">
<stop stop-color="#F7A393"/>
<stop offset="0.43" stop-color="#F5A794"/>
<stop offset="0.51" stop-color="#F5A18E"/>
<stop offset="0.76" stop-color="#F59584"/>
<stop offset="1" stop-color="#F69181"/>
</linearGradient>
<linearGradient id="paint5_linear_26_1198" x1="638.018" y1="864.625" x2="383.707" y2="824.826" gradientUnits="userSpaceOnUse">
<stop stop-color="#F7A393"/>
<stop offset="0.43" stop-color="#F5A794"/>
<stop offset="0.51" stop-color="#F5A18E"/>
<stop offset="0.76" stop-color="#F59584"/>
<stop offset="1" stop-color="#F69181"/>
</linearGradient>
<linearGradient id="paint6_linear_26_1198" x1="215.244" y1="270.586" x2="27.799" y2="241.252" gradientUnits="userSpaceOnUse">
<stop stop-color="#F7A393"/>
<stop offset="0.43" stop-color="#F5A794"/>
<stop offset="0.51" stop-color="#F5A18E"/>
<stop offset="0.76" stop-color="#F59584"/>
<stop offset="1" stop-color="#F69181"/>
</linearGradient>
<linearGradient id="paint7_linear_26_1198" x1="101.849" y1="186.203" x2="31.4108" y2="175.179" gradientUnits="userSpaceOnUse">
<stop stop-color="#F7A393"/>
<stop offset="0.43" stop-color="#F5A794"/>
<stop offset="0.51" stop-color="#F5A18E"/>
<stop offset="0.76" stop-color="#F59584"/>
<stop offset="1" stop-color="#F69181"/>
</linearGradient>
<linearGradient id="paint8_linear_26_1198" x1="166.938" y1="1053.76" x2="59.2565" y2="1073.48" gradientUnits="userSpaceOnUse">
<stop stop-color="#F7A393"/>
<stop offset="0.43" stop-color="#F5A794"/>
<stop offset="0.51" stop-color="#F5A18E"/>
<stop offset="0.76" stop-color="#F59584"/>
<stop offset="1" stop-color="#F69181"/>
</linearGradient>
<linearGradient id="paint9_linear_26_1198" x1="376.44" y1="279.864" x2="222.858" y2="255.829" gradientUnits="userSpaceOnUse">
<stop stop-color="#F9AD99"/>
<stop offset="0.18" stop-color="#F79B8D"/>
<stop offset="0.46" stop-color="#F48781"/>
<stop offset="0.73" stop-color="#F37B79"/>
<stop offset="1" stop-color="#F37777"/>
</linearGradient>
<linearGradient id="paint10_linear_26_1198" x1="405.782" y1="157.238" x2="237.527" y2="130.907" gradientUnits="userSpaceOnUse">
<stop stop-color="#F7A393"/>
<stop offset="0.43" stop-color="#F5A794"/>
<stop offset="0.51" stop-color="#F5A18E"/>
<stop offset="0.76" stop-color="#F59584"/>
<stop offset="1" stop-color="#F69181"/>
</linearGradient>
<linearGradient id="paint11_linear_26_1198" x1="708.749" y1="526.583" x2="361.833" y2="472.292" gradientUnits="userSpaceOnUse">
<stop stop-color="#F7A393"/>
<stop offset="0.43" stop-color="#F5A794"/>
<stop offset="0.51" stop-color="#F5A18E"/>
<stop offset="0.76" stop-color="#F59584"/>
<stop offset="1" stop-color="#F69181"/>
</linearGradient>
<linearGradient id="paint12_linear_26_1198" x1="394.178" y1="231.446" x2="405.433" y2="159.452" gradientUnits="userSpaceOnUse">
<stop stop-color="#F7A393"/>
<stop offset="0.43" stop-color="#F5A794"/>
<stop offset="0.51" stop-color="#F5A18E"/>
<stop offset="0.76" stop-color="#F59584"/>
<stop offset="1" stop-color="#F69181"/>
</linearGradient>
<linearGradient id="paint13_linear_26_1198" x1="397.126" y1="212.715" x2="404.873" y2="163.159" gradientUnits="userSpaceOnUse">
<stop stop-color="#F7A393"/>
<stop offset="0.43" stop-color="#F5A794"/>
<stop offset="0.51" stop-color="#F5A18E"/>
<stop offset="0.76" stop-color="#F59584"/>
<stop offset="1" stop-color="#F69181"/>
</linearGradient>
<linearGradient id="paint14_linear_26_1198" x1="392.034" y1="193.269" x2="395.4" y2="171.74" gradientUnits="userSpaceOnUse">
<stop stop-color="#F7A393"/>
<stop offset="0.43" stop-color="#F5A794"/>
<stop offset="0.51" stop-color="#F5A18E"/>
<stop offset="0.76" stop-color="#F59584"/>
<stop offset="1" stop-color="#F69181"/>
</linearGradient>
<linearGradient id="paint15_linear_26_1198" x1="413.629" y1="198.069" x2="383.107" y2="193.292" gradientUnits="userSpaceOnUse">
<stop stop-color="#F7A393"/>
<stop offset="0.43" stop-color="#F5A794"/>
<stop offset="0.51" stop-color="#F5A18E"/>
<stop offset="0.76" stop-color="#F59584"/>
<stop offset="1" stop-color="#F69181"/>
</linearGradient>
<linearGradient id="paint16_linear_26_1198" x1="261.856" y1="154.056" x2="265.012" y2="131.363" gradientUnits="userSpaceOnUse">
<stop stop-color="#E8DCED"/>
<stop offset="1" stop-color="#BBC3E3"/>
</linearGradient>
<linearGradient id="paint17_linear_26_1198" x1="262.552" y1="153.019" x2="267.162" y2="132.716" gradientUnits="userSpaceOnUse">
<stop stop-color="#48204B"/>
<stop offset="1" stop-color="#301138"/>
</linearGradient>
<linearGradient id="paint18_linear_26_1198" x1="262.685" y1="152.431" x2="267.025" y2="133.32" gradientUnits="userSpaceOnUse">
<stop stop-color="#57345B"/>
<stop offset="1" stop-color="#301138"/>
</linearGradient>
<linearGradient id="paint19_linear_26_1198" x1="263.448" y1="149.071" x2="266.265" y2="136.667" gradientUnits="userSpaceOnUse">
<stop stop-color="#A295B8"/>
<stop offset="0.99" stop-color="#734B61"/>
</linearGradient>
<linearGradient id="paint20_linear_26_1198" x1="283.69" y1="140.47" x2="246.79" y2="132.082" gradientUnits="userSpaceOnUse">
<stop stop-color="#F7A393"/>
<stop offset="0.43" stop-color="#F5A794"/>
<stop offset="0.51" stop-color="#F5A18E"/>
<stop offset="0.76" stop-color="#F59584"/>
<stop offset="1" stop-color="#F69181"/>
</linearGradient>
<linearGradient id="paint21_linear_26_1198" x1="343.764" y1="166.906" x2="347.689" y2="144.333" gradientUnits="userSpaceOnUse">
<stop stop-color="#E8DCED"/>
<stop offset="1" stop-color="#BBC3E3"/>
</linearGradient>
<linearGradient id="paint22_linear_26_1198" x1="343.383" y1="165.743" x2="345.193" y2="145.003" gradientUnits="userSpaceOnUse">
<stop stop-color="#48204B"/>
<stop offset="1" stop-color="#301138"/>
</linearGradient>
<linearGradient id="paint23_linear_26_1198" x1="343.515" y1="165.077" x2="345.216" y2="145.554" gradientUnits="userSpaceOnUse">
<stop stop-color="#57345B"/>
<stop offset="1" stop-color="#301138"/>
</linearGradient>
<linearGradient id="paint24_linear_26_1198" x1="343.762" y1="161.673" x2="344.867" y2="149.002" gradientUnits="userSpaceOnUse">
<stop stop-color="#A295B8"/>
<stop offset="0.99" stop-color="#734B61"/>
</linearGradient>
<linearGradient id="paint25_linear_26_1198" x1="327.117" y1="147.302" x2="364.832" y2="150.597" gradientUnits="userSpaceOnUse">
<stop stop-color="#F7A393"/>
<stop offset="0.43" stop-color="#F5A794"/>
<stop offset="0.51" stop-color="#F5A18E"/>
<stop offset="0.76" stop-color="#F59584"/>
<stop offset="1" stop-color="#F69181"/>
</linearGradient>
<linearGradient id="paint26_linear_26_1198" x1="297.282" y1="183.776" x2="300.802" y2="161.255" gradientUnits="userSpaceOnUse">
<stop stop-color="#F37A7F"/>
<stop offset="0.47" stop-color="#F4837F"/>
<stop offset="1" stop-color="#F58880"/>
</linearGradient>
<linearGradient id="paint27_linear_26_1198" x1="284.855" y1="174.38" x2="286.794" y2="161.978" gradientUnits="userSpaceOnUse">
<stop stop-color="#FCE4D6"/>
<stop offset="0.99" stop-color="#AE7DB7"/>
</linearGradient>
<linearGradient id="paint28_linear_26_1198" x1="311.635" y1="178.58" x2="313.574" y2="166.179" gradientUnits="userSpaceOnUse">
<stop stop-color="#FCE4D6"/>
<stop offset="0.99" stop-color="#AE7DB7"/>
</linearGradient>
<linearGradient id="paint29_linear_26_1198" x1="343.626" y1="200.466" x2="354.393" y2="131.598" gradientUnits="userSpaceOnUse">
<stop stop-color="#FCE4D6"/>
<stop offset="0.99" stop-color="#AE7DB7"/>
</linearGradient>
<linearGradient id="paint30_linear_26_1198" x1="253.932" y1="182.398" x2="263.763" y2="119.516" gradientUnits="userSpaceOnUse">
<stop stop-color="#FCE4D6"/>
<stop offset="0.99" stop-color="#AE7DB7"/>
</linearGradient>
<linearGradient id="paint31_linear_26_1198" x1="303.458" y1="153.946" x2="304.541" y2="147.018" gradientUnits="userSpaceOnUse">
<stop stop-color="#FCE4D6"/>
<stop offset="0.99" stop-color="#AE7DB7"/>
</linearGradient>
<linearGradient id="paint32_linear_26_1198" x1="388.688" y1="165.322" x2="390.758" y2="152.078" gradientUnits="userSpaceOnUse">
<stop stop-color="#FCE4D6"/>
<stop offset="0.99" stop-color="#AE7DB7"/>
</linearGradient>
<linearGradient id="paint33_linear_26_1198" x1="484.464" y1="70.8332" x2="411.798" y2="59.6357" gradientUnits="userSpaceOnUse">
<stop stop-color="#827FBC"/>
<stop offset="1" stop-color="white"/>
</linearGradient>
<linearGradient id="paint34_linear_26_1198" x1="467.838" y1="94.941" x2="415.493" y2="86.8752" gradientUnits="userSpaceOnUse">
<stop stop-color="#827FBC"/>
<stop offset="1" stop-color="white"/>
</linearGradient>
</defs>
</svg>
