<svg width="1512" height="982" viewBox="0 0 1512 982" fill="none" xmlns="http://www.w3.org/2000/svg">
<g clip-path="url(#clip0_7_4388)">
<rect width="1512" height="982" fill="white"/>
<rect x="149" y="-86" width="1580" height="1008" fill="white"/>
<g filter="url(#filter0_f_7_4388)">
<circle cx="754.5" cy="295.5" r="297.5" fill="#FFF0C8"/>
</g>
<g filter="url(#filter1_f_7_4388)">
<rect x="1243" y="179" width="486" height="488" fill="#C8DEFF"/>
</g>
<g filter="url(#filter2_f_7_4388)">
<path d="M1087 469L1374.52 967H799.48L1087 469Z" fill="#FFC8E2"/>
</g>
<g filter="url(#filter3_f_7_4388)">
<circle cx="1240.5" cy="94.5" r="245.5" fill="#C8FFF2"/>
</g>
<path fill-rule="evenodd" clip-rule="evenodd" d="M994.749 1036.5C1379.55 1036.5 1691.5 724.553 1691.5 339.749C1691.5 -38.6299 1389.88 -346.563 1013.96 -356.74C1011.78 -356.806 1009.59 -356.859 1007.39 -356.899C1004.99 -356.966 1002.57 -357 1000.15 -357C999.868 -357 999.585 -356.999 999.302 -356.999C998.985 -356.999 998.668 -357 998.35 -357C998.093 -357 997.836 -357 997.578 -356.999C997.236 -357 996.893 -357 996.55 -357C996.271 -357 995.992 -357 995.713 -356.999C995.392 -357 995.071 -357 994.749 -357C609.945 -357 298 -45.0547 298 339.749C298 724.553 609.945 1036.5 994.749 1036.5ZM957.629 -348.129C969.92 -348.782 982.296 -349.112 994.749 -349.112C1011.59 -349.112 1028.3 -348.508 1044.84 -347.319C1091.58 -329.355 1124.75 -284.038 1124.75 -230.973C1124.75 -162.158 1068.97 -106.373 1000.15 -106.373C931.336 -106.373 875.55 -162.158 875.55 -230.973C875.55 -284.855 909.751 -330.748 957.629 -348.129ZM952.955 -347.865C906.735 -329.186 874.124 -283.888 874.124 -230.973C874.124 -161.37 930.548 -104.946 1000.15 -104.946C1069.75 -104.946 1126.18 -161.37 1126.18 -230.973C1126.18 -283.058 1094.58 -327.764 1049.51 -346.968C1051.69 -346.796 1053.87 -346.614 1056.05 -346.422C1132.96 -322.599 1188.83 -250.903 1188.83 -166.159C1188.83 -61.9537 1104.36 22.5214 1000.15 22.5214C895.945 22.5214 811.47 -61.9537 811.47 -166.159C811.47 -252.292 869.184 -324.944 948.05 -347.554C949.684 -347.664 951.319 -347.767 952.955 -347.865ZM809.31 -166.159C809.31 -248.83 861.877 -319.224 935.409 -345.738C827.18 -317.143 747.39 -218.562 747.39 -101.345C747.39 38.2507 860.555 151.415 1000.15 151.415C1139.75 151.415 1252.91 38.2507 1252.91 -101.345C1252.91 -218.226 1173.58 -316.578 1065.82 -345.49L1065.48 -345.526C1138.7 -318.849 1190.99 -248.61 1190.99 -166.159C1190.99 -60.7605 1105.55 24.6819 1000.15 24.6819C894.752 24.6819 809.31 -60.7605 809.31 -166.159ZM913.356 -341.89C778.65 -304.697 679.729 -181.266 679.729 -34.7309C679.729 141.239 822.381 283.89 998.35 283.89C1174.32 283.89 1316.97 141.239 1316.97 -34.7309C1316.97 -175.27 1225.98 -294.557 1099.7 -336.895C1191.44 -298.076 1255.81 -207.228 1255.81 -101.345C1255.81 39.8491 1141.34 154.31 1000.15 154.31C858.956 154.31 744.496 39.8491 744.496 -101.345C744.496 -212.069 814.885 -306.353 913.356 -341.89ZM676.081 -34.7309C676.081 -171.763 761.608 -288.819 882.193 -335.431C723.7 -286.624 608.509 -139.022 608.509 35.4842C608.509 249.793 782.241 423.525 996.55 423.525C1210.86 423.525 1384.59 249.793 1384.59 35.4842C1384.59 -132.068 1278.4 -274.817 1129.64 -329.13C1242.19 -278.863 1320.62 -165.957 1320.62 -34.7309C1320.62 143.253 1176.33 287.538 998.35 287.538C820.366 287.538 676.081 143.253 676.081 -34.7309ZM832.021 -320.954C697.44 -258.729 604.066 -122.527 604.066 35.4842C604.066 252.247 779.787 427.968 996.55 427.968C1213.31 427.968 1389.03 252.247 1389.03 35.4842C1389.03 -122.526 1295.66 -258.728 1161.08 -320.954C1329.42 -255.153 1448.67 -91.3534 1448.67 100.298C1448.67 349.998 1246.25 552.419 996.55 552.419C746.85 552.419 544.429 349.998 544.429 100.298C544.429 -91.3537 663.676 -255.154 832.021 -320.954ZM1502.07 154.31C1502.07 -47.6029 1383.7 -221.867 1212.56 -302.869C1356.19 -225.755 1453.85 -74.1335 1453.85 100.298C1453.85 352.857 1249.11 557.596 996.55 557.596C743.991 557.596 539.252 352.857 539.252 100.298C539.252 -74.1336 636.914 -225.755 780.542 -302.869C609.404 -221.867 491.029 -47.603 491.029 154.31C491.029 433.501 717.358 659.831 996.55 659.831C1275.74 659.831 1502.07 433.501 1502.07 154.31ZM1236.87 -297.12C1429.33 -206.742 1562.59 -11.1724 1562.59 215.523C1562.59 528.139 1309.17 781.564 996.55 781.564C683.934 781.564 430.508 528.139 430.508 215.523C430.508 -11.1715 563.771 -206.741 756.232 -297.119C594.983 -211.099 485.24 -41.2107 485.24 154.31C485.24 436.698 714.161 665.619 996.55 665.619C1278.94 665.619 1507.86 436.698 1507.86 154.31C1507.86 -41.2115 1398.12 -211.101 1236.87 -297.12ZM1623.09 278.536C1623.09 37.7365 1487.64 -171.426 1288.77 -276.913C1456.6 -177.102 1569.07 6.07642 1569.07 215.523C1569.07 531.718 1312.75 788.046 996.55 788.046C680.354 788.046 424.027 531.718 424.027 215.523C424.027 -5.58521 549.368 -197.418 732.873 -292.8C516.599 -193.507 366.408 24.9751 366.408 278.536C366.408 625.56 647.726 906.878 994.749 906.878C1341.77 906.878 1623.09 625.56 1623.09 278.536ZM1318.91 -268.229C1535.94 -152.273 1683.61 76.4926 1683.61 339.749C1683.61 720.197 1375.2 1028.61 994.749 1028.61C614.302 1028.61 305.888 720.197 305.888 339.749C305.888 76.4933 453.56 -152.272 670.588 -268.228C484.157 -157.46 359.213 45.9468 359.213 278.536C359.213 629.533 643.752 914.072 994.749 914.072C1345.75 914.072 1630.29 629.533 1630.29 278.536C1630.29 45.9461 1505.34 -157.462 1318.91 -268.229Z" fill="url(#paint0_linear_7_4388)"/>
</g>
<defs>
<filter id="filter0_f_7_4388" x="-56.7366" y="-515.737" width="1622.47" height="1622.47" filterUnits="userSpaceOnUse" color-interpolation-filters="sRGB">
<feFlood flood-opacity="0" result="BackgroundImageFix"/>
<feBlend mode="normal" in="SourceGraphic" in2="BackgroundImageFix" result="shape"/>
<feGaussianBlur stdDeviation="256.868" result="effect1_foregroundBlur_7_4388"/>
</filter>
<filter id="filter1_f_7_4388" x="729.263" y="-334.737" width="1513.47" height="1515.47" filterUnits="userSpaceOnUse" color-interpolation-filters="sRGB">
<feFlood flood-opacity="0" result="BackgroundImageFix"/>
<feBlend mode="normal" in="SourceGraphic" in2="BackgroundImageFix" result="shape"/>
<feGaussianBlur stdDeviation="256.868" result="effect1_foregroundBlur_7_4388"/>
</filter>
<filter id="filter2_f_7_4388" x="285.743" y="-44.7366" width="1602.51" height="1525.47" filterUnits="userSpaceOnUse" color-interpolation-filters="sRGB">
<feFlood flood-opacity="0" result="BackgroundImageFix"/>
<feBlend mode="normal" in="SourceGraphic" in2="BackgroundImageFix" result="shape"/>
<feGaussianBlur stdDeviation="256.868" result="effect1_foregroundBlur_7_4388"/>
</filter>
<filter id="filter3_f_7_4388" x="481.263" y="-664.737" width="1518.47" height="1518.47" filterUnits="userSpaceOnUse" color-interpolation-filters="sRGB">
<feFlood flood-opacity="0" result="BackgroundImageFix"/>
<feBlend mode="normal" in="SourceGraphic" in2="BackgroundImageFix" result="shape"/>
<feGaussianBlur stdDeviation="256.868" result="effect1_foregroundBlur_7_4388"/>
</filter>
<linearGradient id="paint0_linear_7_4388" x1="994.749" y1="-357" x2="994.749" y2="1036.5" gradientUnits="userSpaceOnUse">
<stop stop-color="white"/>
<stop offset="1" stop-color="white" stop-opacity="0"/>
</linearGradient>
<clipPath id="clip0_7_4388">
<rect width="1512" height="982" fill="white"/>
</clipPath>
</defs>
</svg>
