<svg width="1512" height="982" viewBox="0 0 1512 982" fill="none" xmlns="http://www.w3.org/2000/svg">
<g clip-path="url(#clip0_17_7)">
<rect width="1512" height="982" fill="white"/>
<g filter="url(#filter0_f_17_7)">
<circle cx="1002.5" cy="182.5" r="206.5" fill="#FFF0C8"/>
</g>
<g filter="url(#filter1_f_17_7)">
<circle cx="1340.5" cy="43.5" r="170.5" fill="#C8FFF2"/>
</g>
<g filter="url(#filter2_f_17_7)">
<rect x="1342" y="102" width="338" height="339" fill="#C8DEFF"/>
</g>
<g filter="url(#filter3_f_17_7)">
<path d="M1233.5 303L1433.12 649.5H1033.88L1233.5 303Z" fill="#FFC8E2"/>
</g>
<path fill-rule="evenodd" clip-rule="evenodd" d="M1558.77 596.536C1738.13 596.536 1883.54 451.132 1883.54 271.768C1883.54 95.401 1742.95 -48.1307 1567.73 -52.8787C1566.71 -52.9092 1565.69 -52.934 1564.66 -52.9531C1563.54 -52.9843 1562.41 -53 1561.29 -53C1561.15 -53 1561.02 -52.9998 1560.89 -52.9994C1560.74 -52.9998 1560.59 -53 1560.45 -53C1560.33 -53 1560.21 -52.9999 1560.09 -52.9996C1559.93 -52.9999 1559.77 -53 1559.61 -53L1559.33 -52.9998L1559.29 -52.9998L1559.25 -52.9997L1559.21 -52.9997L1558.77 -53C1379.4 -53 1234 92.4035 1234 271.768C1234 451.132 1379.4 596.536 1558.77 596.536ZM1541.47 -48.8651C1547.19 -49.1693 1552.96 -49.3234 1558.77 -49.3234C1566.62 -49.3234 1574.41 -49.0415 1582.12 -48.4874C1603.9 -40.1139 1619.36 -18.9908 1619.36 5.74353C1619.36 37.8194 1593.36 63.822 1561.29 63.822C1529.21 63.822 1503.21 37.8194 1503.21 5.74353C1503.21 -19.3717 1519.15 -40.7635 1541.47 -48.8651ZM1539.29 -48.7421C1517.74 -40.0352 1502.54 -18.921 1502.54 5.74353C1502.54 38.1867 1528.84 64.4871 1561.29 64.4871C1593.73 64.4871 1620.03 38.1867 1620.03 5.74353C1620.03 -18.5345 1605.3 -39.3726 1584.29 -48.3237C1585.31 -48.2437 1586.33 -48.1589 1587.34 -48.0695C1623.19 -36.9649 1649.23 -3.54634 1649.23 35.9545C1649.23 84.5265 1609.86 123.902 1561.29 123.902C1512.71 123.902 1473.34 84.5265 1473.34 35.9545C1473.34 -4.19343 1500.24 -38.0581 1537 -48.5972C1537.76 -48.6481 1538.52 -48.6965 1539.29 -48.7421ZM1472.33 35.9545C1472.33 -2.58014 1496.83 -35.3919 1531.11 -47.7507C1480.66 -34.422 1443.47 11.5284 1443.47 66.1654C1443.47 131.234 1496.22 183.982 1561.29 183.982C1626.35 183.982 1679.1 131.234 1679.1 66.1654C1679.1 11.6852 1642.12 -34.1583 1591.9 -47.6351L1591.74 -47.6515C1625.87 -35.2172 1650.24 -2.47756 1650.24 35.9545C1650.24 85.0827 1610.41 124.909 1561.29 124.909C1512.16 124.909 1472.33 85.0827 1472.33 35.9545ZM1520.83 -45.9569C1458.04 -28.6209 1411.93 28.9127 1411.93 97.2156C1411.93 179.238 1478.42 245.731 1560.45 245.731C1642.47 245.731 1708.96 179.238 1708.96 97.2156C1708.96 31.7078 1666.55 -23.894 1607.69 -43.6286C1650.45 -25.5346 1680.45 16.8116 1680.45 66.1654C1680.45 131.979 1627.1 185.331 1561.29 185.331C1495.47 185.331 1442.12 131.979 1442.12 66.1654C1442.12 14.555 1474.93 -29.3924 1520.83 -45.9569ZM1410.23 97.2156C1410.23 33.3424 1450.1 -21.2196 1506.3 -42.9464C1432.43 -20.1961 1378.73 48.6037 1378.73 129.944C1378.73 229.838 1459.71 310.817 1559.61 310.817C1659.5 310.817 1740.48 229.838 1740.48 129.944C1740.48 51.8449 1690.98 -14.6931 1621.64 -40.0095C1674.1 -16.5791 1710.66 36.0489 1710.66 97.2156C1710.66 180.177 1643.41 247.431 1560.45 247.431C1477.48 247.431 1410.23 180.177 1410.23 97.2156ZM1482.92 -36.1983C1404.45 -5.52766 1348.87 70.8226 1348.87 160.155C1348.87 276.545 1443.22 370.897 1559.61 370.897C1676 370.897 1770.35 276.545 1770.35 160.155C1770.35 70.8228 1714.77 -5.5274 1636.3 -36.1981C1699.03 -7.19379 1742.55 56.2924 1742.55 129.944C1742.55 230.981 1660.64 312.888 1559.61 312.888C1458.57 312.888 1376.66 230.981 1376.66 129.944C1376.66 56.2923 1420.19 -7.19402 1482.92 -36.1983ZM1795.24 185.331C1795.24 91.2157 1740.06 9.98784 1660.29 -27.7685C1727.24 8.17575 1772.76 78.8493 1772.76 160.155C1772.76 277.877 1677.33 373.31 1559.61 373.31C1441.88 373.31 1346.45 277.877 1346.45 160.155C1346.45 78.8492 1391.97 8.17567 1458.92 -27.7686C1379.15 9.98775 1323.97 91.2157 1323.97 185.331C1323.97 315.467 1429.47 420.964 1559.61 420.964C1689.74 420.964 1795.24 315.467 1795.24 185.331ZM1447.59 -25.0888C1357.88 17.0382 1295.76 108.197 1295.76 213.863C1295.76 359.58 1413.89 477.706 1559.61 477.706C1705.32 477.706 1823.45 359.58 1823.45 213.863C1823.45 108.197 1761.33 17.0386 1671.62 -25.0886C1746.78 15.0069 1797.94 94.1952 1797.94 185.331C1797.94 316.957 1691.23 423.662 1559.61 423.662C1427.98 423.662 1321.28 316.957 1321.28 185.331C1321.28 94.195 1372.43 15.0066 1447.59 -25.0888ZM1851.65 243.235C1851.65 130.994 1788.51 33.4991 1695.81 -15.6703C1774.05 30.8537 1826.47 116.236 1826.47 213.863C1826.47 361.248 1706.99 480.727 1559.61 480.727C1412.22 480.727 1292.74 361.248 1292.74 213.863C1292.74 110.801 1351.17 21.3843 1436.7 -23.075C1335.89 23.2075 1265.89 125.046 1265.89 243.235C1265.89 404.989 1397.01 536.117 1558.77 536.117C1720.52 536.117 1851.65 404.989 1851.65 243.235ZM1709.86 -11.6223C1811.03 42.4271 1879.86 149.059 1879.86 271.768C1879.86 449.102 1736.1 592.859 1558.77 592.859C1381.43 592.859 1237.68 449.102 1237.68 271.768C1237.68 149.06 1306.51 42.4281 1407.67 -11.6216C1320.77 40.0096 1262.53 134.821 1262.53 243.235C1262.53 406.841 1395.16 539.47 1558.77 539.47C1722.37 539.47 1855 406.841 1855 243.235C1855 134.821 1796.76 40.0087 1709.86 -11.6223Z" fill="url(#paint0_linear_17_7)"/>
</g>
<defs>
<filter id="filter0_f_17_7" x="282.263" y="-537.737" width="1440.47" height="1440.47" filterUnits="userSpaceOnUse" color-interpolation-filters="sRGB">
<feFlood flood-opacity="0" result="BackgroundImageFix"/>
<feBlend mode="normal" in="SourceGraphic" in2="BackgroundImageFix" result="shape"/>
<feGaussianBlur stdDeviation="256.868" result="effect1_foregroundBlur_17_7"/>
</filter>
<filter id="filter1_f_17_7" x="656.263" y="-640.737" width="1368.47" height="1368.47" filterUnits="userSpaceOnUse" color-interpolation-filters="sRGB">
<feFlood flood-opacity="0" result="BackgroundImageFix"/>
<feBlend mode="normal" in="SourceGraphic" in2="BackgroundImageFix" result="shape"/>
<feGaussianBlur stdDeviation="256.868" result="effect1_foregroundBlur_17_7"/>
</filter>
<filter id="filter2_f_17_7" x="828.263" y="-411.737" width="1365.47" height="1366.47" filterUnits="userSpaceOnUse" color-interpolation-filters="sRGB">
<feFlood flood-opacity="0" result="BackgroundImageFix"/>
<feBlend mode="normal" in="SourceGraphic" in2="BackgroundImageFix" result="shape"/>
<feGaussianBlur stdDeviation="256.868" result="effect1_foregroundBlur_17_7"/>
</filter>
<filter id="filter3_f_17_7" x="520.145" y="-210.737" width="1426.71" height="1373.97" filterUnits="userSpaceOnUse" color-interpolation-filters="sRGB">
<feFlood flood-opacity="0" result="BackgroundImageFix"/>
<feBlend mode="normal" in="SourceGraphic" in2="BackgroundImageFix" result="shape"/>
<feGaussianBlur stdDeviation="256.868" result="effect1_foregroundBlur_17_7"/>
</filter>
<linearGradient id="paint0_linear_17_7" x1="1558.77" y1="-53" x2="1558.77" y2="596.536" gradientUnits="userSpaceOnUse">
<stop stop-color="white"/>
<stop offset="1" stop-color="white" stop-opacity="0"/>
</linearGradient>
<clipPath id="clip0_17_7">
<rect width="1512" height="982" fill="white"/>
</clipPath>
</defs>
</svg>
